<svg width="300" height="300" viewBox="0 0 300 300" fill="none" xmlns="http://www.w3.org/2000/svg">
<path d="M77.778 125.487C70.062 131.552 70.3065 116.751 73.92 118.047C74.7405 118.347 77.7375 121.347 78.33 119.424C78.588 118.592 76.401 109.224 75.5745 107.298C81.5054 102.737 85.9231 96.494 88.251 89.3836C88.251 88.5571 86.0475 89.6596 86.0475 89.6596C86.4976 88.5216 86.6858 87.2968 86.598 86.0761C86.5498 86.0121 86.4873 85.9602 86.4156 85.9245C86.3439 85.8887 86.2649 85.8701 86.1847 85.8701C86.1046 85.8701 86.0256 85.8887 85.9539 85.9245C85.8822 85.9602 85.8197 86.0121 85.7715 86.0761C84.393 88.8331 81.087 89.3761 78.33 89.6596C75.03 89.6596 63.447 88.0096 59.313 89.9356C57.384 90.7621 55.179 93.5176 56.013 98.4856C56.013 99.0376 56.8395 102.345 57.39 102.62C59.523 102.612 61.6183 103.182 63.453 104.27C63.729 104.544 63.453 104.82 63.1785 104.82C62.076 104.82 61.248 104.544 60.4215 104.544C56.5635 104.27 51.051 104.27 50.5005 109.23C49.9485 113.088 51.327 116.948 52.7055 120.255C54.3555 124.388 63.453 137.894 64.5555 138.444C64.9415 138.452 65.3263 138.398 65.6955 138.285C65.982 141.186 66.5085 144.075 67.0365 146.712C67.311 148.362 68.9655 148.641 68.6865 146.712C67.902 143.835 67.365 140.958 66.606 138.081C70.5315 137.163 78.849 134.814 80.538 133.76C81.087 133.481 78.6 124.661 77.778 125.487ZM80.811 93.7936C80.9532 93.8049 81.0868 93.8666 81.1876 93.9675C81.2885 94.0684 81.3502 94.2019 81.3615 94.3441C81.3615 96.0436 76.0605 97.0441 75.849 97.1011C75.5745 97.1011 75.2985 96.5491 75.5745 96.5491C75.8805 96.2416 80.055 93.5416 80.811 93.7936ZM66.75 127.968C66.7508 128.005 66.7442 128.041 66.7307 128.075C66.7171 128.109 66.6968 128.139 66.671 128.165C66.6452 128.191 66.6144 128.211 66.5806 128.225C66.5467 128.238 66.5105 128.245 66.474 128.244C65.6475 128.52 64.824 127.692 64.545 127.142C63.9546 126.438 63.4038 125.702 62.895 124.937C63.019 127.138 63.5799 129.293 64.545 131.276C64.6214 131.459 64.6361 131.663 64.5867 131.856C64.5373 132.049 64.4265 132.22 64.2711 132.345C64.1157 132.469 63.9241 132.54 63.7251 132.546C63.5262 132.552 63.3306 132.493 63.168 132.378C61.2949 130.411 59.7165 128.183 58.482 125.763C57.159 123.254 55.7265 120.803 56.0025 117.771C56.0025 117.495 56.553 117.219 56.553 117.771C57.1975 120.344 58.3166 122.774 59.853 124.937C60.4019 126.008 61.0539 127.023 61.8 127.968C61.2889 126.176 61.1945 124.29 61.524 122.456C61.5306 122.294 61.5914 122.138 61.6969 122.015C61.8023 121.892 61.9461 121.807 62.1052 121.776C62.2643 121.744 62.4294 121.767 62.574 121.84C62.7187 121.914 62.8343 122.034 62.9025 122.181C64.1505 124.691 67.1145 126.528 66.75 127.968ZM60.9675 93.2416C60.6825 93.3766 60.4455 93.2011 60.6915 92.9671C61.7143 92.1191 62.9112 91.5067 64.1973 91.1733C65.4834 90.8399 66.8271 90.7938 68.133 91.0381C70.3216 91.3783 72.5317 91.5622 74.7465 91.5886C74.8965 91.5886 78.8205 91.0981 77.2275 92.6911C75.3585 94.0921 71.172 93.4096 68.9595 92.9671C66.3347 92.2018 63.5336 92.298 60.9675 93.2416Z" fill="#00D12E"/>
<path d="M92.3865 119.424C93.0865 118.863 93.6489 118.149 94.0308 117.337C94.4127 116.525 94.604 115.637 94.59 114.74C94.59 111.035 91.59 108.72 89.079 105.644C87.717 103.977 86.0475 102.612 84.393 100.959C84.117 100.683 83.5665 100.959 83.8425 101.51C84.945 102.888 86.0475 104.543 87.1425 105.92C90.3855 109.97 92.2425 111.92 92.6535 114.188C92.6702 115.64 92.2889 117.07 91.551 118.322C91.4824 117.907 91.2906 117.523 91.0005 117.219C90.7245 116.945 90.357 116.964 90.4485 117.495C91.17 121.649 92.0985 126.315 90.7245 130.724C90.3229 132.255 89.5677 133.671 88.5195 134.858C87.417 136.236 85.764 136.788 84.3855 137.891C84.1095 138.165 84.1095 138.717 84.6615 138.717C86.5905 138.992 88.2435 137.615 89.622 136.512C90.986 135.1 92.0234 133.407 92.661 131.55C93.8138 127.575 93.718 123.343 92.3865 119.424Z" fill="#00D12E"/>
<path d="M138.136 148.088C142.752 146.768 145.597 144.908 154.672 140.37C158.137 139.215 159.786 138.53 161.286 135.41C174 108.951 175.602 91.6366 177 87.4501C177.318 85.8179 177.501 84.1623 177.547 82.5001C177.547 81.6721 176.445 81.6721 176.169 82.2241C175.461 85.1323 174.91 88.0765 174.519 91.0441C171.917 103.892 168.039 116.448 162.943 128.526C161.593 131.571 160.738 135.966 157.707 137.621C154.68 139.287 151.55 140.76 148.336 142.031C144.999 143.622 141.721 145.613 138.136 147.267C137.308 147.536 137.584 148.088 138.136 148.088Z" fill="#00D12E"/>
<path d="M175.618 78.084C173.968 76.7055 172.294 75.6255 170.382 74.226C169.279 73.6303 168.333 72.7797 167.625 71.745C167.285 71.109 167.107 70.3991 167.107 69.678C167.107 68.957 167.285 68.247 167.625 67.611C168.152 66.0929 168.797 64.6184 169.554 63.201C170.106 61.824 170.932 60.4455 171.484 59.067C171.759 58.5165 170.932 57.9645 170.382 58.5165C169.395 59.7923 168.563 61.1799 167.901 62.6505C166.798 65.13 165.087 68.169 165.42 70.9185C165.621 71.8475 166.02 72.7222 166.589 73.4832C167.159 74.2442 167.885 74.8736 168.72 75.3285C170.67 76.6785 172.854 78.084 174.783 79.1865C175.618 79.1865 176.169 78.6345 175.618 78.084Z" fill="#00D12E"/>
<path d="M173.138 64.3037C174.045 59.3132 174.268 53.6627 174.787 50.5232C175.063 48.8732 175.063 47.2232 175.339 45.5627C175.615 44.4602 175.89 45.8387 176.166 46.1147C176.442 47.2172 176.983 48.3212 177.268 49.6967C178.069 53.5607 178.371 57.6902 178.918 61.5467C178.936 61.7171 179.017 61.8749 179.144 61.9896C179.271 62.1043 179.436 62.1677 179.608 62.1677C179.779 62.1677 179.944 62.1043 180.072 61.9896C180.199 61.8749 180.279 61.7171 180.297 61.5467C180.491 55.8162 179.555 50.1035 177.541 44.7347C177.45 44.2841 177.21 43.877 176.861 43.5781C176.511 43.2792 176.072 43.1055 175.612 43.0847C173.683 43.0847 173.962 46.3847 173.683 47.4932C173.125 52.8957 172.849 58.3235 172.855 63.7547C172.311 64.5797 172.862 64.5797 173.138 64.3037Z" fill="#00D12E"/>
<path d="M187.744 55.7597C188.824 56.7042 189.593 57.9535 189.949 59.3432C190.225 60.7074 190.225 62.113 189.949 63.4772C189.812 63.6807 189.738 63.9207 189.738 64.1664C189.738 64.4121 189.812 64.6522 189.949 64.8557C190.225 65.1302 190.5 64.8557 190.776 64.5797C191.856 63.4997 191.706 60.5852 191.328 59.0672C191.102 58.1828 190.69 57.3568 190.119 56.644C189.549 55.9312 188.834 55.348 188.02 54.9332C187.627 54.7937 187.468 55.4852 187.744 55.7597Z" fill="#00D12E"/>
<path d="M194.084 76.7057C194.999 74.7818 195.648 72.742 196.012 70.6427C196.513 67.0532 196.565 62.3747 194.084 59.3432C193.808 58.7912 192.981 59.3432 193.257 59.8937C194.631 63.2099 194.921 66.876 194.084 70.3667C193.532 73.6667 191.533 76.3997 190.225 79.4627C189.642 80.8277 191.613 95.9972 192.154 103.715C192.715 111.707 192.705 119.7 192.705 127.692C192.705 135.41 192.163 143.127 191.602 151.119C191.383 154.946 190.736 158.736 189.673 162.419C188.742 165.164 187.13 167.629 184.989 169.584C182.282 172.358 179.224 174.767 175.893 176.75C173.97 177.861 172.311 178.955 170.382 180.05C168.444 181.082 166.599 182.281 164.869 183.633C164.317 183.908 164.869 184.736 165.42 184.46C169.132 183.196 172.655 181.435 175.893 179.223C178.918 177.358 181.779 175.237 184.443 172.884C186.721 170.905 188.675 168.58 190.231 165.995C191.819 162.715 192.755 159.158 192.987 155.522C196 133.67 194.737 102.623 191.337 80.8322C192.705 80.2892 193.808 77.5322 194.084 76.7057Z" fill="#00D12E"/>
<path d="M13.839 227.462C13.449 233.312 10.266 247.923 8.8785 253.643C7.6395 258.75 7.5 258.45 7.5 259.707C7.5 260.258 8.0505 260.534 8.6025 259.982C9.60898 258.493 10.2682 256.798 10.5315 255.021C11.334 251.367 14.9415 233.223 14.9415 227.462C14.6655 226.634 13.839 226.634 13.839 227.462Z" fill="#00D12E"/>
<path d="M180.855 53.8305C181.405 54.657 182.232 55.209 182.505 56.0355C183.291 57.7638 183.669 59.6502 183.607 61.548C183.607 63.4635 185.763 61.698 184.986 58.248C184.709 56.8616 184.147 55.5479 183.336 54.39C182.725 53.6913 181.974 53.1291 181.131 52.74C180.855 53.004 180.579 53.55 180.855 53.8305Z" fill="#00D12E"/>
<path d="M108.647 210.374C108.095 210.65 107.816 209.816 108.371 209.547C112.479 207.561 163.767 188.877 164.32 188.601C162.117 182.813 145.579 139.82 145.029 137.615C144.98 137.484 144.904 137.365 144.806 137.266C144.708 137.166 144.591 137.088 144.461 137.036C144.331 136.984 144.192 136.96 144.053 136.964C143.913 136.969 143.776 137.002 143.651 137.063C137.588 141.197 100.932 154.151 100.106 154.427C91.008 144.78 63.45 143.4 51.8715 148.638C51.6939 148.691 51.5382 148.8 51.4274 148.949C51.3167 149.097 51.2569 149.278 51.2569 149.463C51.2569 149.649 51.3167 149.829 51.4274 149.978C51.5382 150.126 51.6939 150.235 51.8715 150.288C54.6075 151.134 56.4615 154.877 56.8335 155.249C46.911 158.549 37.728 164.001 31.4835 172.335C23.4405 183.063 22.6335 189.996 9.98701 230.763C9.96848 230.913 9.9835 231.065 10.031 231.208C10.0785 231.351 10.1572 231.482 10.2615 231.591C16.326 232.694 22.6635 232.968 28.728 234.071C28.248 220.653 28.488 205.461 32.028 192.455C33.4603 186.489 35.6851 180.743 38.643 175.368C38.919 175.092 39.4695 175.368 39.195 175.643C37.5931 178.886 36.3899 182.31 35.6115 185.843C29.004 205.664 31.317 233.834 31.7535 254.742C31.8165 257.774 32.028 260.807 32.304 263.838C35.3365 264.783 38.4983 265.248 41.6745 265.215C44.4315 265.215 62.3385 264.036 68.6835 263.565C81.9015 262.578 121.049 260.81 127.664 261.36C127.878 261.346 128.08 261.255 128.233 261.103C128.385 260.951 128.476 260.748 128.49 260.534C128.628 253.364 131.522 207.618 131.522 204.584C123.781 206.026 116.141 207.96 108.647 210.374ZM88.8 183.089C89.8333 188.828 91.8878 194.336 94.866 199.35C94.974 199.444 95.0553 199.564 95.1015 199.699C95.1478 199.834 95.1574 199.979 95.1293 200.119C95.1013 200.259 95.0365 200.389 94.9418 200.496C94.8471 200.603 94.7257 200.683 94.59 200.727C94.0395 200.727 93.4875 199.625 93.213 199.35C92.1105 197.7 91.008 195.767 89.9055 193.838C88.2464 189.873 87.1362 185.701 86.6055 181.436C85.5915 173.349 88.4055 165.314 91.566 161.592C91.818 161.292 95.4255 158.009 95.1495 159.111C94.8735 159.938 93.7455 160.74 93.2205 161.316C91.8905 162.959 90.8639 164.826 90.189 166.829C88.3082 172.033 87.8292 177.641 88.8 183.089ZM80.25 154.151C82.0247 154.305 83.6862 155.086 84.936 156.356C84.9878 156.424 85.0222 156.504 85.0361 156.589C85.05 156.673 85.0431 156.76 85.0159 156.842C84.9887 156.923 84.9421 156.997 84.8801 157.056C84.8181 157.115 84.7425 157.159 84.66 157.182C80.4735 157.182 80.9325 154.977 63.438 154.977C62.8875 154.977 63.1635 154.427 63.438 154.427C67.281 154.131 76.308 153.492 80.259 154.151H80.25Z" fill="#008CDB"/>
<path d="M199.87 35.0896C193.734 35.0896 160.041 34.5106 154.673 35.0896C151.646 35.4166 148.334 35.9161 146.123 38.3896C144.902 39.6732 144.128 41.3168 143.918 43.0756C143.63 46.6523 143.63 50.2464 143.918 53.8231C144.173 56.8576 144.158 59.9221 146.673 62.3731C151.568 67.1281 159.899 64.7161 165.966 64.8541C166.076 64.8541 166.181 64.8105 166.259 64.7329C166.336 64.6552 166.38 64.5499 166.38 64.4401C166.38 64.3303 166.336 64.225 166.259 64.1474C166.181 64.0697 166.076 64.0261 165.966 64.0261C163.485 64.0261 160.73 63.7516 158.249 63.7516C153.386 63.7516 148.817 63.6271 146.673 59.3416C145.296 56.5861 145.571 53.0026 145.571 49.9711C145.571 47.2156 145.296 43.3561 146.673 40.8766C148.05 38.3971 151.089 37.3516 153.84 37.0171C157.592 36.6064 161.365 36.4226 165.14 36.4666C206.925 36.4666 209.528 36.3451 210.614 36.4666C211.997 36.7087 213.318 37.2232 214.501 37.9803C215.683 38.7373 216.704 39.7218 217.503 40.8766C219.111 43.6177 219.696 46.8399 219.153 49.9711C219.086 50.3791 218.772 56.7421 217.224 59.3416C214.832 63.3571 205.848 63.4846 203.724 63.7516H198.762C198.488 63.7516 197.385 63.7516 197.66 64.3021H197.936C202.061 64.6809 206.212 64.6809 210.338 64.3021C213.095 64.0261 215.85 63.4756 217.503 61.2706C219.153 59.3416 219.395 56.8561 219.708 54.3811C220.014 52.4651 220.198 50.5318 220.26 48.5926C220.398 46.8498 220.398 45.0989 220.26 43.3561C219.902 41.8391 219.225 40.4156 218.275 39.1802C217.324 37.9448 216.122 36.9257 214.747 36.1906C213.43 35.5306 209.07 35.0896 199.87 35.0896Z" fill="#00D12E"/>
<path d="M246.723 122.181C252.77 122.755 258.852 122.846 264.913 122.456C267.165 122.468 269.403 122.096 271.528 121.353C272.642 120.896 273.655 120.222 274.506 119.37C275.358 118.519 276.032 117.507 276.489 116.393C276.934 114.967 277.121 113.474 277.039 111.983C277.039 108.666 277.117 108.083 276.765 107.022C276.765 106.746 276.213 106.746 276.213 107.022C275.838 108.272 275.744 109.59 275.937 110.88C275.906 112.274 275.721 113.661 275.387 115.014C275.121 116.101 274.61 117.114 273.894 117.974C273.177 118.834 272.274 119.518 271.253 119.976C269.194 120.609 267.065 120.98 264.913 121.079C262.708 121.079 260.228 121.353 258.024 121.353C254.441 121.353 250.582 121.353 246.999 121.629C246.45 121.905 246.45 122.181 246.723 122.181Z" fill="#00D12E"/>
<path d="M182.508 180.057C192.762 180.281 221.594 180.978 227.982 180.333C231.012 180.033 234.08 179.832 236.532 178.128C239.609 175.986 240.116 172.616 240.116 169.308C240.783 158.618 240.915 151.047 230.193 150.293C224.688 149.904 219.17 150.293 213.381 150.293C198.792 150.293 199.731 150.567 197.121 150.567C197.011 150.567 196.906 150.611 196.828 150.688C196.751 150.766 196.707 150.871 196.707 150.981C196.707 151.091 196.751 151.196 196.828 151.274C196.906 151.351 197.011 151.395 197.121 151.395C198.224 151.395 200.153 151.647 201.531 151.67C209.802 151.808 218.066 151.136 226.335 151.67C230.744 151.955 236.584 151.929 238.185 157.182C239.608 161.853 239.282 168.206 238.46 172.892C237.35 179.229 227.711 178.904 222.75 178.955C209.25 179.093 196.017 178.679 182.513 179.231C182.232 179.507 182.232 180.051 182.508 180.057Z" fill="#00D12E"/>
<path d="M283.102 157.733C276.984 157.122 243.352 157.623 242.589 158.009C242.038 158.285 242.865 174.545 243.417 174.545C250.317 174.051 283.467 173.768 286.135 173.168C289.461 172.418 291.37 168.758 291.37 165.45C291.646 161.04 287.238 158.285 283.102 157.733Z" fill="#008CDB"/>
<path d="M168.727 100.409C161.037 99.6266 153.303 99.35 145.576 99.5807C141.718 99.5807 137.86 99.5807 134.002 99.8567C132.069 99.8108 130.134 99.9031 128.214 100.133C126.372 100.075 124.529 100.167 122.701 100.407C121.168 100.758 119.752 101.502 118.593 102.565C117.434 103.628 116.57 104.974 116.088 106.472C114.985 109.227 116.371 112.25 118.567 114.188C121.052 116.19 124.204 117.176 127.387 116.945C141.415 116.945 150.582 117.039 164.869 116.117C165.42 116.117 165.42 115.014 164.869 115.29C153.949 115.937 143.002 116.029 132.072 115.566C129.04 115.566 125.472 115.8 122.427 114.74C119.958 113.879 117.19 111.44 117.19 108.401C117.318 106.972 117.896 105.622 118.84 104.543C119.715 103.152 121.101 102.162 122.7 101.786C126.054 101.228 129.525 101.795 133.449 101.235C140.236 101.235 128.331 100.959 168.999 100.959C169.003 100.809 169.003 100.683 168.727 100.409Z" fill="#00D12E"/>
<path d="M288.064 43.0832C285.322 41.4002 282 41.7002 278.7 41.7002C225.126 41.7002 222.477 41.9087 222.477 43.0787C222.476 47.8676 222.2 52.6525 221.649 57.4097C221.544 57.4776 221.462 57.5768 221.416 57.6934C221.37 57.81 221.361 57.9382 221.392 58.0599C221.422 58.1815 221.49 58.2906 221.586 58.3717C221.681 58.4528 221.8 58.502 221.925 58.5122C237.388 59.3957 256.849 58.5707 280.905 58.2362C283.384 58.2017 286.141 58.2362 288.345 56.5862C293.779 53.5652 294.081 46.7672 288.064 43.0832Z" fill="#008CDB"/>
<path d="M289.718 102.888C287.238 100.409 278.142 99.8565 278.142 100.959C278.142 105.369 278.142 115.566 278.694 116.117C279.429 116.588 280.308 116.783 281.174 116.669C282.937 116.746 284.702 116.559 286.41 116.117C287.794 115.736 289.054 115.003 290.069 113.988C291.084 112.974 291.818 111.713 292.199 110.33C292.362 108.983 292.224 107.617 291.795 106.33C291.366 105.043 290.656 103.867 289.718 102.888Z" fill="#008CDB"/>
<path d="M275.937 98.2035C271.437 91.4535 262.08 92.967 255.819 92.967C252.235 92.967 248.377 92.967 244.794 92.691C221.889 92.691 211.044 91.512 206.485 93.7935C205.533 94.1153 204.653 94.6216 203.896 95.2836C203.14 95.9456 202.521 96.7502 202.075 97.6515C201.662 98.4218 201.374 99.2526 201.22 100.113C197.446 100.106 195.571 100.022 195.186 100.413V101.24C195.564 101.584 196.053 101.779 196.564 101.79C199.255 101.79 200.403 101.871 201.001 101.88C200.908 103.296 200.973 104.709 200.973 105.93C200.755 109.35 201.022 112.784 201.765 116.13C197.101 116.13 196.725 116.049 196.012 116.406L196.05 117.509C196.2 117.659 195.357 117.509 202.276 117.509C202.671 118.441 203.246 119.286 203.968 119.996C204.69 120.705 205.546 121.265 206.485 121.643C209.461 122.634 211.365 122.469 224.124 122.469C234.99 122.469 242.124 122.169 243.691 122.195C243.801 122.195 243.907 122.151 243.984 122.073C244.062 121.996 244.105 121.89 244.105 121.781C244.105 121.671 244.062 121.565 243.984 121.488C243.907 121.41 243.801 121.367 243.691 121.367C242.041 121.367 240.109 121.092 238.455 121.092H221.368C216.682 121.092 210.343 122.195 206.209 119.99C205.05 119.267 204.105 118.247 203.475 117.035C202.845 115.822 202.552 114.463 202.627 113.099C202.351 108.965 201.801 103.454 202.902 99.318C203.284 98.2415 203.951 97.289 204.832 96.5625C208.548 92.847 216.583 93.807 262.432 93.807C266.016 93.807 269.598 93.807 272.355 95.736C273.672 96.6349 274.708 97.8886 275.342 99.3519C275.976 100.815 276.182 102.428 275.937 104.004C276.213 104.28 276.213 104.28 276.489 104.004C276.884 103.067 277.04 102.047 276.944 101.034C276.847 100.022 276.501 99.0494 275.937 98.2035Z" fill="#00D12E"/>
<path d="M216.408 102.338C214.158 109.068 216.958 115.62 216.958 113.085C217.296 112.073 217.624 99.9 216.408 102.338Z" fill="#00D12E"/>
<path d="M226.879 101.51C226.356 103.344 226.605 104.558 226.605 110.606C226.605 112.301 226.731 113.085 227.982 113.085C228.754 112.571 228.534 112.151 228.534 107.574C228.534 98.6776 226.549 101.51 226.879 101.51Z" fill="#00D12E"/>
<path d="M239.558 113.085C240.044 112.358 239.43 97.9081 237.629 101.51C237.779 101.51 237.15 115.5 239.558 113.085Z" fill="#00D12E"/>
<path d="M248.377 101.786C248.074 104.807 247.982 107.846 248.101 110.88C248.101 111.708 248.101 113.085 248.653 113.637C248.928 113.913 249.403 113.901 249.48 113.637C249.721 112.646 249.813 111.624 249.754 110.606C249.87 107.563 249.686 104.516 249.204 101.51C249.204 101.235 248.377 101.235 248.377 101.786Z" fill="#00D12E"/>
<path d="M260.227 102.062C260.227 102.212 259.353 111.962 261.056 113.361C263.06 115.004 262.089 105.9 261.906 104.774C261.125 99.9557 260.25 101.462 260.227 102.062Z" fill="#00D12E"/>
<path d="M158.53 44.7362C157.521 47.7662 158.338 47.7107 157.704 50.2487C157.704 51.8987 157.428 54.1067 158.254 55.4852C158.53 56.0357 159.082 55.7597 159.082 55.4852C159.429 54.4442 159.357 53.9852 159.357 47.4917C159.357 46.6652 159.082 45.8417 159.082 44.7362C159.357 44.4602 158.806 44.1842 158.53 44.7362Z" fill="#00D12E"/>
<path d="M169.003 43.9095C168.43 46.9048 168.245 49.9615 168.453 53.004C168.453 53.8305 168.453 55.209 169.279 55.485H169.83C170.656 54.933 170.382 53.835 170.382 53.004C170.584 49.9614 170.399 46.9054 169.83 43.9095C169.554 43.6335 169.003 43.3575 169.003 43.9095Z" fill="#00D12E"/>
<path d="M190.5 44.1842C190.198 47.2061 190.106 50.2455 190.225 53.2802C190.225 54.1067 190.225 55.4852 190.776 56.0357C191.052 56.3117 191.583 56.3357 191.664 56.0672C191.884 55.062 191.956 54.0302 191.878 53.0042C191.994 49.9619 191.81 46.9157 191.328 43.9097C191.328 43.6337 190.5 43.6337 190.5 44.1842Z" fill="#00D12E"/>
<path d="M202.35 44.46C202.35 44.61 201.387 58.377 204 55.7595C204.924 54.3765 203.649 46.023 203.174 44.184C203.048 43.68 202.35 43.9095 202.35 44.46Z" fill="#00D12E"/>
<path d="M203.73 159.663C203.514 161.175 203.638 170.442 204.832 171.239C204.881 171.303 204.943 171.354 205.015 171.39C205.087 171.426 205.166 171.445 205.246 171.445C205.326 171.445 205.405 171.426 205.477 171.39C205.548 171.354 205.611 171.303 205.659 171.239C206.534 169.926 205.101 160.605 204.832 159.663C204.832 159.111 204 159.111 203.73 159.663Z" fill="#00D12E"/>
<path d="M214.477 160.214C214.175 163.235 214.083 166.274 214.203 169.308C214.203 170.136 214.203 171.513 214.754 172.065C215.03 172.34 215.58 172.34 215.58 172.065C216.132 171.239 215.856 170.136 215.856 169.034C215.972 165.991 215.787 162.944 215.305 159.938C215.305 159.387 214.477 159.663 214.477 160.214Z" fill="#00D12E"/>
<path d="M228.258 168.482C228.178 165.602 227.809 162.737 227.155 159.932C226.981 159.368 226.47 159.608 226.329 160.208C226.11 161.203 226.018 162.221 226.053 163.239C226.053 166.172 225.867 167.837 226.053 168.939C226.06 169.419 226.162 169.892 226.353 170.332C226.543 170.772 226.819 171.17 227.163 171.504C227.211 171.568 227.273 171.621 227.345 171.657C227.417 171.692 227.496 171.711 227.576 171.711C227.656 171.711 227.736 171.692 227.807 171.657C227.879 171.621 227.941 171.568 227.989 171.504C228.534 170.687 228.258 169.584 228.258 168.482Z" fill="#00D12E"/>
<path d="M193.808 163.521C193.808 164.9 193.531 166.277 193.531 167.655V170.687C193.531 171.239 194.083 171.513 194.634 171.513C196.612 171.513 195.093 166.622 194.634 163.797C194.494 162.936 193.808 163.245 193.808 163.521Z" fill="#00D12E"/>
<path d="M143.1 42.5311C141.924 42.2749 140.718 42.182 139.517 42.2551C133.725 42.3931 127.667 41.7046 121.878 42.5311C119.97 42.8878 118.229 43.8548 116.918 45.2866C115.789 46.7469 115.176 48.5407 115.176 50.3866C115.176 52.2325 115.789 54.0262 116.918 55.4866C120.326 59.8861 127.793 58.2421 135.659 58.2421C137.861 58.1041 140.071 58.1041 142.274 58.2421C142.444 58.2243 142.602 58.144 142.716 58.0167C142.831 57.8894 142.895 57.7241 142.895 57.5528C142.895 57.3815 142.831 57.2162 142.716 57.0889C142.602 56.9617 142.444 56.8814 142.274 56.8636C140.622 56.7353 138.963 56.7353 137.312 56.8636C135.386 57.1636 133.178 57.1396 131.249 57.4156C125.43 57.4156 122.387 57.7081 119.949 56.3131C118.477 55.376 117.426 53.9055 117.015 52.2099C116.604 50.5144 116.865 48.7256 117.744 47.2186C119.394 44.4616 122.705 43.9111 125.738 43.9111C130.422 43.6351 135.108 44.1856 139.793 43.9111C140.994 43.9566 142.196 43.8639 143.376 43.6351C143.373 43.0831 143.373 42.8071 143.1 42.5311Z" fill="#00D12E"/>
<path d="M180.422 44.1182C180.358 44.5049 180.319 44.8951 180.303 45.2867C180.303 47.8127 180.216 48.2312 180.579 48.5942C181.086 49.1012 181.682 47.8442 181.682 47.4917C181.779 46.3727 181.718 45.2457 181.502 44.1437C181.403 43.8122 180.495 43.7072 180.422 44.1182Z" fill="#00D12E"/>
<path d="M86.0475 123.284C86.3252 123.69 86.694 124.026 87.1244 124.265C87.5548 124.504 88.0351 124.64 88.527 124.661C89.9055 124.661 90.177 125.487 89.3535 126.039C88.7295 126.352 88.0085 126.413 87.3411 126.207C86.6737 126.002 86.1114 125.547 85.7715 124.937C84.8205 123.45 84.945 122.181 86.0475 123.284Z" fill="#00D12E"/>
<path d="M82.74 106.2C82.3044 106.143 81.8616 106.217 81.4686 106.413C81.0756 106.61 80.7505 106.92 80.535 107.303C79.7085 108.405 79.0185 108.154 79.1565 107.026C79.1953 106.333 79.507 105.683 80.0236 105.218C80.5401 104.753 81.2196 104.512 81.9135 104.547C83.85 104.542 84.117 105.92 82.74 106.2Z" fill="#00D12E"/>
<path d="M81.6375 110.33C81.6375 110.695 81.8698 111.046 82.2833 111.304C82.6969 111.563 83.2577 111.708 83.8425 111.708C84.4273 111.708 84.9882 111.563 85.4017 111.304C85.8152 111.046 86.0475 110.695 86.0475 110.33C86.0475 109.964 85.8152 109.613 85.4017 109.355C84.9882 109.096 84.4273 108.951 83.8425 108.951C83.2577 108.951 82.6969 109.096 82.2833 109.355C81.8698 109.613 81.6375 109.964 81.6375 110.33Z" fill="#00D12E"/>
</svg>
