<svg width="880" height="658" viewBox="0 0 880 658" fill="none" xmlns="http://www.w3.org/2000/svg">
<path d="M466.996 479.341H382.301L193.466 385.625H278.074L466.996 479.341Z" fill="#D5DAD6"/>
<path d="M622.722 479.341H538.115L349.192 385.625H433.887L622.722 479.341Z" fill="#D5DAD6"/>
<path d="M778.54 479.341H693.933L505.01 385.625H589.705L778.54 479.341Z" fill="#D5DAD6"/>
<path d="M815.941 420.573V462.612L660.824 385.625H745.519L815.941 420.573Z" fill="#D5DAD6"/>
<path d="M674.312 261.777L667.513 273.426L652.765 247.85L625.087 295.849H693.933L674.312 261.777Z" fill="#D5DAD6"/>
<path d="M311.183 479.341H226.483L152.032 442.378V400.427L311.183 479.341Z" fill="#D5DAD6"/>
<path d="M694.458 655.826H625.175V640.147H694.458V655.826Z" fill="#008CDB"/>
<path d="M684.823 635.072L639.452 612.649L644.444 589.875L677.203 606.167L684.823 635.072Z" fill="#008CDB"/>
<path d="M669.758 577.438L649.35 567.277L652.766 551.336H662.926L669.758 577.438Z" fill="#008CDB"/>
<path d="M688.678 259.587C690.234 259.587 691.727 258.969 692.827 257.868C693.928 256.768 694.546 255.275 694.546 253.719C694.546 252.162 693.928 250.67 692.827 249.569C691.727 248.468 690.234 247.85 688.678 247.85C687.121 247.85 685.629 248.468 684.528 249.569C683.427 250.67 682.809 252.162 682.809 253.719C682.809 255.275 683.427 256.768 684.528 257.868C685.629 258.969 687.121 259.587 688.678 259.587Z" fill="#008CDB"/>
<path d="M276.234 187.856L282.015 197.841C282.541 195.126 283.154 192.586 283.398 191.802C280.927 190.644 278.534 189.326 276.234 187.856Z" fill="#008CDB"/>
<path d="M303.387 139.335L294.453 142.659C293.283 139.743 291.457 137.135 289.116 135.039C286.775 132.943 283.982 131.414 280.955 130.572C281.526 130.213 281.978 129.693 282.254 129.078C282.53 128.462 282.617 127.779 282.505 127.114C282.392 126.449 282.085 125.832 281.622 125.341C281.159 124.851 280.561 124.508 279.904 124.357C275.011 123.37 269.945 123.684 265.211 125.267C260.477 126.85 256.241 129.647 252.926 133.379C252.493 133.865 252.207 134.464 252.103 135.107C251.999 135.749 252.081 136.408 252.338 137.006C252.596 137.603 253.019 138.115 253.558 138.48C254.096 138.846 254.728 139.05 255.379 139.068C252.71 142.351 251.023 146.32 250.512 150.52C250.001 154.719 250.686 158.978 252.488 162.805L257.587 160.864C259.629 168.466 264.852 178.442 267.466 185.841C268.07 179.689 267.505 173.477 265.802 167.535C264.915 167.435 264.057 167.158 263.279 166.721C262.5 166.284 261.818 165.695 261.272 164.989C260.725 164.283 260.326 163.475 260.098 162.612C259.869 161.749 259.817 160.849 259.943 159.965L266.06 157.66C267.047 158.227 268.111 158.637 269.218 158.886C270.601 159.214 270.785 156.913 270.873 155.825L304.692 142.945C307.661 141.442 304.867 138.294 303.387 139.335Z" fill="#008CDB"/>
<path d="M295.154 385.625H302.249L306.365 357.683L295.154 385.625Z" fill="#008CDB"/>
<path d="M404.987 650.133C392.595 639.193 373.639 626.161 356.812 621.233C341.792 625.566 325.853 625.566 310.832 621.233C307.691 630.097 305.776 639.349 305.139 648.731C305.083 649.585 305.203 650.441 305.491 651.247C305.779 652.052 306.23 652.79 306.815 653.414C307.401 654.038 308.108 654.536 308.893 654.875C309.679 655.215 310.525 655.389 311.381 655.388C340.885 655.476 366.295 655.738 402.908 655.826C403.569 655.826 404.214 655.622 404.756 655.243C405.298 654.864 405.71 654.327 405.937 653.706C406.164 653.085 406.195 652.409 406.025 651.77C405.855 651.131 405.492 650.559 404.987 650.133Z" fill="#008CDB"/>
<path d="M94.665 365.041C93.6612 364.629 92.5415 364.598 91.5164 364.953C69.8863 372.597 39.1883 378.931 4.38738 397.187C3.81348 397.494 3.31553 397.926 2.92988 398.451C2.54423 398.976 2.2806 399.58 2.15824 400.22C2.03588 400.859 2.05786 401.518 2.22259 402.148C2.38732 402.779 2.69064 403.364 3.11041 403.862C3.67304 404.528 4.42317 405.01 5.26328 405.245C31.0971 412.004 57.652 415.621 84.3524 416.018C93.4618 394.471 100.114 384.311 111.155 377.755C106.774 372.241 101.111 367.877 94.665 365.041Z" fill="#008CDB"/>
<path d="M820.233 352.078C820.233 353.24 819.771 354.354 818.949 355.176C818.128 355.998 817.013 356.459 815.851 356.459C814.689 356.459 813.574 355.998 812.753 355.176C811.931 354.354 811.469 353.24 811.469 352.078C811.469 350.916 811.931 349.801 812.753 348.979C813.574 348.158 814.689 347.696 815.851 347.696C817.013 347.696 818.128 348.158 818.949 348.979C819.771 349.801 820.233 350.916 820.233 352.078Z" fill="#008CDB"/>
<path d="M156.241 352.078C156.241 353.239 155.78 354.353 154.958 355.174C154.137 355.996 153.023 356.457 151.861 356.457C150.7 356.457 149.586 355.996 148.765 355.174C147.943 354.353 147.482 353.239 147.482 352.078C147.482 350.916 147.943 349.802 148.765 348.981C149.586 348.16 150.7 347.698 151.861 347.698C153.023 347.698 154.137 348.16 154.958 348.981C155.78 349.802 156.241 350.916 156.241 352.078Z" fill="#008CDB"/>
<path d="M152.036 392.807V464.363L109.463 441.157C112.287 419.765 122.968 400.189 139.428 386.238L152.036 392.807Z" fill="#008CDB"/>
<path d="M321.251 479.286L309.869 583.384C328.411 594.448 348.699 595.771 369.43 591.092L388.082 479.286H321.251Z" fill="#008CDB"/>
<path d="M178.927 479.341L199.248 490.728C206.433 494.77 214.609 496.716 222.845 496.344C231.081 495.972 239.048 493.298 245.841 488.626C249.628 486.096 252.972 482.959 255.739 479.341H178.927Z" fill="#008CDB"/>
<path d="M297.09 318.273L290.871 299.528H256.001C248.381 308.748 230.513 333.181 227.272 358.209C226.221 366.092 223.768 377.304 221.929 385.625H351.382L325.455 337.542C319.265 337.906 313.127 336.214 307.997 332.729C302.867 329.244 299.033 324.162 297.09 318.273Z" fill="#008CDB"/>
<path fill-rule="evenodd" clip-rule="evenodd" d="M408.929 276.234C416.604 274.002 423.71 270.147 429.766 264.93C445.246 251.404 448.326 255.36 432.652 275.183C443.154 273.503 453.379 270.407 463.05 265.981C469.721 263.215 471.722 266.945 464.977 271.675C460.554 274.646 455.931 277.309 451.142 279.645C458.084 278.234 464.929 276.386 471.639 274.113C478.397 271.518 479.771 276.022 472.777 280.245C467.379 283.122 461.855 285.757 456.223 288.142C461.226 287.55 466.196 286.702 471.113 285.601C478.102 283.864 478.987 288.649 471.551 291.82C466.077 293.932 460.492 295.745 454.821 297.251C458.27 297.283 461.722 297.136 465.157 296.813C472.159 295.891 472.159 299.514 464.719 302.244C458.302 304.595 451.585 306.37 444.988 308.117L442.033 308.9C432.633 311.408 419.366 314.087 408.929 315.926V319.148H559.136V224.381H408.929V276.234Z" fill="#008CDB"/>
<path d="M694.458 655.826H625.175V640.147H694.458V655.826Z" stroke="#092B10" stroke-width="3" stroke-linecap="round" stroke-linejoin="round"/>
<path d="M684.823 635.072L639.452 612.649L644.444 589.875L677.203 606.167L684.823 635.072Z" stroke="#092B10" stroke-width="3" stroke-linecap="round" stroke-linejoin="round"/>
<path d="M669.758 577.438L649.35 567.277L652.766 551.336H662.926L669.758 577.438Z" stroke="#092B10" stroke-width="3" stroke-linecap="round" stroke-linejoin="round"/>
<path d="M677.203 606.167L644.444 589.875L649.349 567.277L669.758 577.438L677.203 606.167Z" stroke="#092B10" stroke-width="3" stroke-linecap="round" stroke-linejoin="round"/>
<path d="M686.137 639.972H633.496L639.452 612.649L684.823 635.072L686.137 639.972Z" stroke="#092B10" stroke-width="3" stroke-linecap="round" stroke-linejoin="round"/>
<path d="M299.27 144.992C301.26 145.755 302.97 147.106 304.175 148.863C305.379 150.621 306.021 152.703 306.015 154.834C306.009 157.05 305.315 159.21 304.028 161.014C302.741 162.819 300.926 164.179 298.833 164.907" stroke="#092B10" stroke-width="3" stroke-linecap="round" stroke-linejoin="round"/>
<path d="M267.476 185.841C264.843 178.382 259.639 168.466 257.656 160.841" stroke="#092B10" stroke-width="3" stroke-linecap="round" stroke-linejoin="round"/>
<path d="M266.249 157.637C267.065 158.14 267.95 158.518 268.872 158.771C270.716 159.232 270.55 157.794 270.716 155.973" stroke="#092B10" stroke-width="3" stroke-linecap="round" stroke-linejoin="round"/>
<path d="M317.835 224.381H376.958V259.587" stroke="#092B10" stroke-width="3" stroke-linecap="round" stroke-linejoin="round"/>
<path d="M314.77 219.738L345.601 265.018L408.929 254.069" stroke="#092B10" stroke-width="3" stroke-linecap="round" stroke-linejoin="round"/>
<path d="M760.981 385.625V177.082C760.99 158.851 753.76 141.363 740.88 128.462C727.999 115.56 710.522 108.302 692.292 108.282H275.797C266.77 108.278 257.831 110.052 249.49 113.503C241.149 116.954 233.57 122.015 227.186 128.396C220.801 134.777 215.736 142.353 212.28 150.691C208.824 159.03 207.044 167.968 207.043 176.994V385.625" stroke="#092B10" stroke-width="3" stroke-linecap="round" stroke-linejoin="round"/>
<path d="M229.987 495.458C242.586 506.717 258.9 512.924 275.796 512.888H317.134" stroke="#092B10" stroke-width="3" stroke-linecap="round" stroke-linejoin="round"/>
<path d="M751.299 479.341C745.204 489.558 736.564 498.02 726.221 503.9C715.879 509.779 704.188 512.876 692.292 512.888H382.739" stroke="#092B10" stroke-width="3" stroke-linecap="round" stroke-linejoin="round"/>
<path d="M293.577 191.797H760.934" stroke="#092B10" stroke-width="3" stroke-linecap="round" stroke-linejoin="round"/>
<path d="M207.043 191.797H266.074" stroke="#092B10" stroke-width="3" stroke-linecap="round" stroke-linejoin="round"/>
<path d="M339.119 154.834C339.118 156.238 338.84 157.628 338.301 158.924C337.763 160.221 336.974 161.399 335.98 162.39C334.986 163.382 333.807 164.168 332.509 164.704C331.212 165.24 329.821 165.515 328.417 165.513C327.013 165.512 325.624 165.234 324.327 164.695C323.031 164.156 321.853 163.368 320.861 162.374C319.87 161.38 319.083 160.201 318.548 158.903C318.012 157.606 317.737 156.215 317.738 154.811C317.741 151.976 318.871 149.258 320.878 147.255C322.885 145.252 325.605 144.129 328.44 144.132C331.276 144.135 333.994 145.264 335.996 147.271C337.999 149.278 339.123 151.999 339.119 154.834Z" stroke="#092B10" stroke-width="3" stroke-linecap="round" stroke-linejoin="round"/>
<path d="M408.929 276.317V224.381H559.136V319.148H408.929V315.732" stroke="#092B10" stroke-width="3" stroke-linecap="round" stroke-linejoin="round"/>
<path d="M728.526 319.148H591.106V224.381H728.526V319.148Z" stroke="#092B10" stroke-width="3" stroke-linecap="round" stroke-linejoin="round"/>
<path d="M241.812 319.148H239.447V224.381H256.79" stroke="#092B10" stroke-width="3" stroke-linecap="round" stroke-linejoin="round"/>
<path d="M408.929 385.625V351.815H559.136V385.625" stroke="#092B10" stroke-width="3" stroke-linecap="round" stroke-linejoin="round"/>
<path d="M591.106 385.625V351.815H728.526V385.625" stroke="#092B10" stroke-width="3" stroke-linecap="round" stroke-linejoin="round"/>
<path d="M333.164 351.815H376.959V385.625" stroke="#092B10" stroke-width="3" stroke-linecap="round" stroke-linejoin="round"/>
<path d="M559.137 224.381L477.069 276.142" stroke="#092B10" stroke-width="3" stroke-linecap="round" stroke-linejoin="round"/>
<path d="M408.929 224.381L559.136 319.148" stroke="#092B10" stroke-width="3" stroke-linecap="round" stroke-linejoin="round"/>
<path d="M652.765 247.85L625.087 295.849H680.444L652.765 247.85Z" stroke="#092B10" stroke-width="3" stroke-linecap="round" stroke-linejoin="round"/>
<path d="M674.313 261.777L667.568 273.426L680.444 295.849H693.933L674.313 261.777Z" stroke="#092B10" stroke-width="3" stroke-linecap="round" stroke-linejoin="round"/>
<path d="M688.678 259.587C690.234 259.587 691.727 258.969 692.827 257.868C693.928 256.768 694.546 255.275 694.546 253.719C694.546 252.162 693.928 250.67 692.827 249.569C691.727 248.468 690.234 247.85 688.678 247.85C687.121 247.85 685.629 248.468 684.528 249.569C683.427 250.67 682.809 252.162 682.809 253.719C682.809 255.275 683.427 256.768 684.528 257.868C685.629 258.969 687.121 259.587 688.678 259.587Z" stroke="#092B10" stroke-width="3" stroke-linecap="round" stroke-linejoin="round"/>
<path d="M427.756 275.879C439.957 274.403 451.86 271.065 463.05 265.981C469.721 263.215 471.721 266.945 464.977 271.675C458.73 275.88 452.067 279.433 445.094 282.278" stroke="#092B10" stroke-width="3" stroke-linecap="round" stroke-linejoin="round"/>
<path d="M451.142 279.645C458.084 278.234 464.929 276.386 471.639 274.113C478.397 271.518 479.771 276.022 472.777 280.245C464.282 284.734 455.47 288.598 446.413 291.807" stroke="#092B10" stroke-width="3" stroke-linecap="round" stroke-linejoin="round"/>
<path d="M456.223 288.142C461.226 287.55 466.196 286.702 471.113 285.601C478.102 283.864 478.987 288.649 471.551 291.82C463.704 294.854 455.618 297.227 447.376 298.915" stroke="#092B10" stroke-width="3" stroke-linecap="round" stroke-linejoin="round"/>
<path d="M454.821 297.251C458.27 297.283 461.723 297.136 465.157 296.813C472.16 295.891 472.16 299.514 464.719 302.244C457.343 304.945 449.566 306.89 442.033 308.9C432.491 311.445 419.61 313.971 409.104 315.815" stroke="#092B10" stroke-width="3" stroke-linecap="round" stroke-linejoin="round"/>
<path d="M433.362 275.123C449.036 255.3 445.246 251.404 429.766 264.93C421.685 271.89 411.779 276.389 401.221 277.894" stroke="#092B10" stroke-width="3" stroke-linecap="round" stroke-linejoin="round"/>
<path d="M281.969 197.675L276.234 187.856C278.576 189.285 281.006 190.576 283.504 191.71" stroke="#092B10" stroke-width="3" stroke-linecap="round" stroke-linejoin="round"/>
<path d="M292.881 147.426C302.687 164.119 302.641 195.831 287.534 192.848L283.505 191.71L281.928 197.841C281.261 200.534 281.382 203.361 282.278 205.987L263.009 202.658C264.871 197.159 266.365 191.539 267.476 185.841C268.112 179.696 267.577 173.486 265.899 167.535C260.86 166.299 259.39 162.653 260.049 159.933" stroke="#092B10" stroke-width="3" stroke-linecap="round" stroke-linejoin="round"/>
<path d="M303.387 139.335C302.898 139.506 294.453 142.659 294.453 142.659C293.283 139.743 291.457 137.135 289.116 135.039C286.775 132.943 283.982 131.414 280.955 130.572C281.526 130.213 281.978 129.693 282.254 129.078C282.53 128.462 282.617 127.779 282.505 127.114C282.392 126.449 282.085 125.832 281.622 125.341C281.159 124.851 280.561 124.508 279.904 124.357C275.011 123.354 269.94 123.66 265.203 125.244C260.466 126.828 256.231 129.634 252.926 133.379C252.493 133.865 252.207 134.464 252.103 135.107C251.999 135.749 252.081 136.408 252.338 137.006C252.596 137.603 253.019 138.115 253.558 138.48C254.096 138.846 254.728 139.05 255.379 139.068C252.71 142.351 251.023 146.32 250.512 150.52C250.001 154.719 250.686 158.978 252.488 162.805L304.692 142.922C304.931 142.84 305.152 142.71 305.341 142.541C305.531 142.373 305.684 142.168 305.793 141.939C305.903 141.711 305.965 141.462 305.977 141.209C305.989 140.956 305.951 140.703 305.865 140.465C305.778 140.227 305.645 140.008 305.473 139.822C305.301 139.636 305.093 139.486 304.863 139.381C304.632 139.276 304.383 139.217 304.129 139.21C303.876 139.202 303.624 139.245 303.387 139.335Z" stroke="#092B10" stroke-width="3" stroke-linecap="round" stroke-linejoin="round"/>
<path d="M306.365 357.683L302.249 385.625H295.154L306.365 357.683Z" stroke="#092B10" stroke-width="3" stroke-linecap="round" stroke-linejoin="round"/>
<path d="M255.646 479.341C249.155 487.69 239.883 493.431 229.517 495.52C219.15 497.61 208.378 495.909 199.16 490.728L178.839 479.341" stroke="#092B10" stroke-width="3" stroke-linecap="round" stroke-linejoin="round"/>
<path d="M152.036 392.807L139.428 386.238C123.242 398.924 113.87 417.719 109.463 441.157L152.023 464.276" stroke="#092B10" stroke-width="3" stroke-linecap="round" stroke-linejoin="round"/>
<path d="M222.454 385.625C224.416 376.552 226.023 367.407 227.272 358.209C231.531 326.511 255.913 299.528 255.913 299.528H290.857" stroke="#092B10" stroke-width="3" stroke-linecap="round" stroke-linejoin="round"/>
<path d="M321.164 479.429L309.869 583.394C326.682 593.904 346.749 595.919 369.426 591.102L387.031 487.487C387.469 484.772 387.82 482.057 387.995 479.341" stroke="#092B10" stroke-width="3" stroke-linecap="round" stroke-linejoin="round"/>
<path d="M325.543 337.713L351.382 385.537" stroke="#092B10" stroke-width="3" stroke-linecap="round" stroke-linejoin="round"/>
<path d="M402.885 655.849C366.277 655.268 340.871 655.457 311.358 655.411C310.505 655.407 309.662 655.229 308.879 654.888C308.097 654.547 307.392 654.051 306.808 653.429C306.226 652.804 305.778 652.067 305.491 651.264C305.204 650.46 305.085 649.606 305.139 648.754C305.795 639.374 307.71 630.125 310.833 621.256C325.852 625.594 341.793 625.594 356.813 621.256C373.63 626.161 392.596 639.235 404.987 650.156C405.494 650.583 405.857 651.157 406.026 651.798C406.196 652.44 406.163 653.118 405.934 653.74C405.704 654.362 405.288 654.898 404.742 655.276C404.197 655.653 403.548 655.853 402.885 655.849Z" stroke="#092B10" stroke-width="3" stroke-linecap="round" stroke-linejoin="round"/>
<path d="M310.745 621.32L316.259 586.897" stroke="#092B10" stroke-width="3" stroke-linecap="round" stroke-linejoin="round"/>
<path d="M360.579 592.678L356.462 621.32" stroke="#092B10" stroke-width="3" stroke-linecap="round" stroke-linejoin="round"/>
<path d="M94.665 365.041C93.6612 364.629 92.5415 364.598 91.5164 364.953C69.8863 372.597 39.1883 378.931 4.38738 397.186C3.81348 397.494 3.31553 397.926 2.92988 398.451C2.54423 398.976 2.2806 399.58 2.15824 400.22C2.03588 400.859 2.05786 401.518 2.22259 402.148C2.38732 402.778 2.69064 403.364 3.11041 403.862C3.67304 404.528 4.42317 405.01 5.26328 405.245C31.0971 412.004 57.652 415.621 84.3524 416.018C93.4618 394.471 100.114 384.311 111.155 377.755C106.774 372.241 101.111 367.877 94.665 365.041Z" stroke="#092B10" stroke-width="3" stroke-linecap="round" stroke-linejoin="round"/>
<path d="M111.132 377.391L134.343 390.354" stroke="#092B10" stroke-width="3" stroke-linecap="round" stroke-linejoin="round"/>
<path d="M84.334 416.018L111.745 430.996" stroke="#092B10" stroke-width="3" stroke-linecap="round" stroke-linejoin="round"/>
<path d="M152.037 353.041V655.914" stroke="#092B10" stroke-width="3" stroke-linecap="round" stroke-linejoin="round"/>
<path d="M815.941 655.914V353.036" stroke="#092B10" stroke-width="3" stroke-linecap="round" stroke-linejoin="round"/>
<path d="M83.458 655.826H877.95" stroke="#092B10" stroke-width="3" stroke-linecap="round" stroke-linejoin="round"/>
<path d="M815.941 385.625H152.037" stroke="#092B10" stroke-width="3" stroke-linecap="round" stroke-linejoin="round"/>
<path d="M815.941 479.341H152.037" stroke="#092B10" stroke-width="3" stroke-linecap="round" stroke-linejoin="round"/>
<path d="M142.839 282.577H103.166" stroke="#092B10" stroke-width="3" stroke-linecap="round" stroke-linejoin="round"/>
<path d="M123.002 302.419V262.653" stroke="#092B10" stroke-width="3" stroke-linecap="round" stroke-linejoin="round"/>
<path d="M848.783 201.607C848.933 203.311 848.703 205.027 848.11 206.631C847.517 208.235 846.575 209.687 845.352 210.883C844.13 212.079 842.657 212.989 841.041 213.547C839.424 214.105 837.704 214.297 836.004 214.11C834.402 213.929 832.856 213.416 831.464 212.604C830.072 211.791 828.865 210.696 827.921 209.389C826.977 208.083 826.317 206.593 825.982 205.016C825.647 203.44 825.646 201.81 825.978 200.233C826.31 198.655 826.968 197.165 827.91 195.857C828.852 194.549 830.057 193.452 831.448 192.637C832.838 191.822 834.384 191.306 835.985 191.124C837.587 190.941 839.209 191.095 840.748 191.576C843.673 192.5 846.113 194.547 847.529 197.269C848.23 198.62 848.654 200.091 848.783 201.607Z" stroke="#092B10" stroke-width="3" stroke-linecap="round" stroke-linejoin="round"/>
<path d="M556.859 2.08646L547.049 24.0254H564.917L555.107 45.8768" stroke="#092B10" stroke-width="3" stroke-linecap="round" stroke-linejoin="round"/>
<path d="M252.322 347.698C266.248 344.07 278.423 335.593 286.658 323.791" stroke="#092B10" stroke-width="3" stroke-linecap="round" stroke-linejoin="round"/>
<path d="M313.285 555.628C332.769 562.733 353.642 565.192 374.243 562.81" stroke="#092B10" stroke-width="3" stroke-linecap="round" stroke-linejoin="round"/>
<path d="M278.337 261.777L297.09 318.273C299.239 324.798 303.705 330.309 309.643 333.762C315.582 337.216 322.58 338.372 329.314 337.012L408.053 321.269C411.395 306.024 405.872 285.343 399.386 274.478L337.013 285.251C328.434 259.062 325.303 241.71 320.551 229.982C314.622 215.345 306.366 209.49 282.288 206.01L263.018 202.681C262.142 205.397 261.252 208.283 260.298 211.353C251.494 239.925 249.988 270.248 255.918 299.551" stroke="#092B10" stroke-width="3" stroke-linecap="round" stroke-linejoin="round"/>
<path d="M466.997 479.341H382.302L193.467 385.625H278.074L466.997 479.341Z" stroke="#092B10" stroke-width="3" stroke-linecap="round" stroke-linejoin="round"/>
<path d="M622.722 479.341H538.115L349.192 385.625H433.887L622.722 479.341Z" stroke="#092B10" stroke-width="3" stroke-linecap="round" stroke-linejoin="round"/>
<path d="M778.54 479.341H693.933L505.01 385.625H589.705L778.54 479.341Z" stroke="#092B10" stroke-width="3" stroke-linecap="round" stroke-linejoin="round"/>
<path d="M815.941 420.573V462.612L660.824 385.625H745.519L815.941 420.573Z" stroke="#092B10" stroke-width="3" stroke-linecap="round" stroke-linejoin="round"/>
<path d="M311.183 479.341H226.483L152.032 442.378V400.427L311.183 479.341Z" stroke="#092B10" stroke-width="3" stroke-linecap="round" stroke-linejoin="round"/>
</svg>
