<svg width="300" height="300" viewBox="0 0 300 300" fill="none" xmlns="http://www.w3.org/2000/svg">
<g clip-path="url(#clip0_115_764)">
<path d="M106.155 235.15C108.655 234.264 111.217 233.562 113.82 233.05L114.135 234.205C114.17 234.341 114.253 234.46 114.369 234.54C114.485 234.62 114.625 234.655 114.765 234.64L125.07 233.44C127.905 226.975 133.11 217.18 133.185 217.03C133.11 214.585 133.185 212.53 133.185 210.19C127.29 212.38 116.385 216.535 110.685 219.19C110.556 219.273 110.456 219.394 110.4 219.537C110.343 219.679 110.333 219.836 110.37 219.985C110.37 219.985 110.475 220.36 110.61 220.9C107.82 220.9 99.465 220.495 97.455 222.4C97.1425 222.835 96.9889 223.365 97.02 223.9C96.9 225.97 97.935 242.05 99.585 246.775C100.44 249.25 102.24 248.98 103.47 246.61C104.894 243.041 105.808 239.289 106.185 235.465C106.185 235.27 106.14 235.285 106.155 235.15ZM104.43 221.725C106.26 221.575 106.83 221.605 110.76 221.485C111.465 224.155 112.92 229.645 113.67 232.45C111.024 232.86 108.411 233.467 105.855 234.265C105.058 230.128 104.582 225.935 104.43 221.725Z" fill="#008CDB"/>
<path d="M244.215 90.4451C244.59 89.9201 244.11 89.2451 243.705 88.7201C244.852 87.5401 246.125 86.4889 247.5 85.5851C249.821 84.4285 251.942 82.9095 253.785 81.0851C254.55 80.2901 255.99 78.6551 255.45 77.6951C254.91 76.7351 253.95 76.6751 252.645 77.2301C253.21 76.6365 253.672 75.9519 254.01 75.2051C254.43 74.0351 253.44 73.0901 251.295 73.9601C252.075 72.7151 252.255 71.4101 250.935 70.7801C249.87 70.2701 248.31 71.4851 247.41 72.2801C245.643 73.8243 243.984 75.4882 242.445 77.2601C241.5 75.2801 240 73.0001 238.125 73.7201C236.25 74.4401 237.705 77.6651 238.665 79.4201L235.26 81.7751C234.745 81.4973 234.164 81.3675 233.58 81.4001C229.71 82.0601 211.935 95.5901 210.135 95.5901C208.755 95.5901 189.045 86.1401 172.005 83.4101C171.972 83.3079 171.911 83.2171 171.829 83.1481C171.746 83.0791 171.646 83.0347 171.54 83.0201C168.568 82.513 165.555 82.287 162.54 82.3451C162.449 82.3513 162.36 82.3773 162.279 82.4213C162.199 82.4654 162.129 82.5264 162.075 82.6001H160.815C160.515 81.3851 159.405 78.5801 159.015 77.5001C160.035 76.6151 161.445 76.1651 162.18 74.7401C163.53 72.1001 163.47 67.5101 163.095 64.5701C164.79 63.2801 164.835 61.2101 164.445 59.0951C164.295 58.2401 163.83 56.3051 163.11 55.8251C162.705 55.5551 161.85 55.8251 161.115 56.0951C160.38 54.3851 160.38 55.1651 160.68 54.4751C160.819 54.1571 160.901 53.8168 160.92 53.4701C161.715 53.7101 163.365 52.1201 162.795 50.0201C162.496 49.2684 162.13 48.5454 161.7 47.8601C161.91 47.3501 162.36 46.7351 160.95 44.8601C160.343 44.2051 159.554 43.7456 158.685 43.5401H157.995C157.497 42.8175 156.767 42.2879 155.925 42.0401C154.655 41.7162 153.308 41.9048 152.175 42.5651C151.875 42.7901 151.635 43.0901 151.335 43.3001C150.657 42.8883 149.878 42.6705 149.085 42.6705C148.292 42.6705 147.513 42.8883 146.835 43.3001C146.438 43.4559 146.076 43.6904 145.772 43.9894C145.468 44.2884 145.228 44.6458 145.065 45.0401C144.33 44.7865 143.55 44.6889 142.775 44.7535C142.001 44.8181 141.248 45.0434 140.565 45.4151C137.974 46.8202 136.035 49.1839 135.165 52.0001C135.141 52.4248 135.141 52.8505 135.165 53.2751H135C132.75 52.9451 129.885 58.2851 132.18 62.4401C132.45 62.9351 132.795 63.4001 133.125 63.9401C134.085 65.4401 133.71 65.8901 135.855 67.7201C136.485 68.2601 136.59 68.2151 136.98 68.5451C137.37 68.8751 137.22 68.7101 137.445 69.5501C137.568 70.045 137.787 70.5105 138.091 70.9199C138.395 71.3293 138.777 71.6744 139.215 71.9351C139.374 73.4023 140 74.7797 141 75.8651C141.317 76.2195 141.686 76.523 142.095 76.7651C142.205 76.8273 142.329 76.8632 142.455 76.8701C142.905 79.6601 143.46 83.2901 143.7 84.8351L142.365 85.5551C140.618 86.2579 138.92 87.0747 137.28 88.0001C137.151 88.0891 137.06 88.2228 137.025 88.3751C135.435 89.2151 133.935 90.0101 133.08 90.5201C121.17 97.5851 87.345 144.16 87 146.29C86.9619 146.412 86.9619 146.543 87 146.665C87.4848 147.439 88.0755 148.14 88.755 148.75C88.5456 149.132 88.2941 149.489 88.005 149.815C85.005 151.78 80.505 154.705 78.09 157.315C77.9206 157.466 77.7935 157.659 77.7213 157.874C77.6491 158.089 77.6342 158.319 77.6781 158.542C77.722 158.764 77.8232 158.972 77.9718 159.143C78.1203 159.315 78.311 159.445 78.525 159.52C78.975 159.67 79.05 159.625 81.975 158.02C81.1711 158.725 80.5137 159.581 80.04 160.54C79.845 161.365 80.595 161.845 81.54 161.695C82.0717 161.556 82.578 161.333 83.04 161.035C82.7694 161.453 82.6255 161.94 82.6255 162.438C82.6255 162.935 82.7694 163.422 83.04 163.84C84.54 165.73 88.47 159.775 90.54 158.305C91.38 159.37 92.52 161.86 94.335 161.2C95.91 160.615 94.185 157.15 94.335 156.145C94.9453 155.559 95.597 155.018 96.285 154.525C97.4421 155.383 98.7652 155.991 100.17 156.31C102.645 156.31 128.475 130.24 130.44 128.155C129.735 134.785 126.18 163.24 126.93 168.775C127.275 171.28 133.29 171.64 135.825 171.775C135.06 189.775 134.55 217.045 134.415 217.33C130.44 225.895 129.36 228.235 128.025 230.83C125.595 235.48 115.365 252.64 114.21 256.54C114.045 257.155 114.03 257.395 114.675 258.535C112.742 260.567 110.948 262.727 109.305 265C108.48 266.5 112.02 280.48 114.525 285.43C115.095 286.54 116.025 288.25 117.27 288.205C121.02 288.07 121.005 274.6 120.9 270.835C120.899 270.719 120.857 270.607 120.78 270.52C121.46 269.506 122.201 268.534 123 267.61C123.477 267.938 123.978 268.229 124.5 268.48C125.01 268.705 125.58 268.315 126 267.97C130.995 264.04 157.935 230.47 163.71 214.63C166.335 207.4 169.83 197.41 170.82 190.33C171.425 185.854 171.481 181.32 170.985 176.83C170.985 176.766 171.01 176.705 171.055 176.66C171.1 176.615 171.161 176.59 171.225 176.59C171.289 176.59 171.35 176.615 171.395 176.66C171.44 176.705 171.465 176.766 171.465 176.83C172.216 181.346 172.362 185.941 171.9 190.495C170.79 200.32 163.035 220.795 158.895 228.325C162.465 227.665 169.725 226.225 173.235 225.175C184.935 221.62 195.735 211.015 196.68 199.105C196.986 193.494 196.986 187.871 196.68 182.26C196.579 174.514 195.572 166.807 193.68 159.295C196.86 157.57 199.77 155.545 200.715 153.685C202.74 149.71 197.385 126.835 196.215 120.415C202.62 121.12 213.525 122.395 218.61 118.42C224.43 113.74 237 100.57 244.215 90.4451ZM120.09 270.01C117.39 268.375 113.61 264.49 113.04 261.445C113.655 260.665 114.3 259.945 114.9 259.135C116.933 262.237 119.467 264.98 122.4 267.25C121.576 268.124 120.805 269.045 120.09 270.01ZM239.34 79.8401C239.418 79.7906 239.473 79.7133 239.496 79.624C239.518 79.5347 239.505 79.4403 239.46 79.3601C238.935 78.3851 237.36 74.9501 238.455 74.5601C239.085 74.3201 239.64 74.7101 240.105 75.2351C240.815 76.1359 241.368 77.1502 241.74 78.2351C241.768 78.3233 241.819 78.4023 241.888 78.4637C241.957 78.525 242.042 78.5663 242.133 78.5833C242.224 78.6002 242.318 78.5921 242.404 78.5599C242.491 78.5276 242.567 78.4724 242.625 78.4001C244.125 76.7351 247.635 72.9401 249.615 71.9201C251.115 71.1401 251.475 72.5801 247.8 75.9401C246.956 76.5837 246.145 77.2696 245.37 77.9951C245.327 78.054 245.304 78.1249 245.304 78.1976C245.304 78.2704 245.327 78.3412 245.37 78.4001C245.37 78.7901 245.685 79.2251 246.225 78.8201C247.529 77.6756 248.907 76.6183 250.35 75.6551C251.087 75.1318 251.943 74.8018 252.84 74.6951C252.39 76.0751 248.205 79.8251 247.845 80.2451C247.731 80.3475 247.661 80.4905 247.652 80.6436C247.642 80.7966 247.693 80.9473 247.793 81.0633C247.893 81.1792 248.035 81.2512 248.188 81.2637C248.341 81.2762 248.492 81.2283 248.61 81.1301C250.275 80.0501 253.185 77.5301 254.19 77.9051C255.195 78.2801 252.21 81.0701 251.46 81.7301C247.155 85.4651 248.265 83.0651 243.285 88.1351C241.117 85.7605 238.628 83.7006 235.89 82.0151L239.34 79.8401ZM174.165 151.585C173.91 149.515 173.595 147.28 173.205 144.955L173.85 144.1C176.85 140.245 177.75 134.11 177.465 129.295C179.07 136.33 180.345 143.245 181.32 150.115L174.165 151.585ZM151.86 100.225C147.915 97.2251 141.57 92.0501 137.88 88.5101L143.88 85.5101C149.389 90.6564 154.106 96.5909 157.875 103.12C163.638 113.708 167.913 125.039 170.58 136.795L149.19 106.54L151.98 100.75C152.017 100.661 152.025 100.563 152.004 100.468C151.982 100.374 151.932 100.289 151.86 100.225ZM162 83.2151C162.09 83.3801 163.125 85.5851 164.7 89.4401C164.7 89.6051 164.415 93.3551 164.28 94.6751C162.366 93.9163 160.56 92.9075 158.91 91.6751C159.24 90.3701 160.725 84.4451 160.83 83.1101L162 83.2151ZM156.675 99.3251C156.78 99.0551 156.885 98.6951 157.005 98.2751L158.01 98.8001C158.58 99.1751 158.355 98.0351 158.865 101.335C158.865 101.89 159.015 102.505 159.045 103.18C158.355 101.935 157.5 100.6 156.69 99.3251H156.675ZM155.835 98.0651C153.001 94.0457 149.775 90.3174 146.205 86.9351L157.5 91.8401C157.065 92.8751 156.435 96.0401 155.85 98.0651H155.835ZM167.37 106.855C165.87 102.76 164.715 98.1851 164.145 96.9851C164.179 96.6109 164.179 96.2344 164.145 95.8601C164.362 95.9409 164.589 95.9914 164.82 96.0101C164.965 96.0118 165.105 95.961 165.215 95.8673C165.326 95.7736 165.398 95.6432 165.42 95.5001C165.54 95.0051 165.735 92.5001 165.765 91.9451C170.129 102.962 173.771 114.251 176.67 125.74C168.195 107.71 169.5 112.93 167.385 106.855H167.37ZM179.775 135.49C176.355 119.095 170.34 98.6501 163.5 83.5001C166.012 83.5015 168.52 83.7022 171 84.1001C172.275 95.5001 171.21 95.1101 172.065 95.5601C172.92 96.0101 178.065 98.0801 178.83 98.3951C178.755 99.5501 179.835 132.58 179.79 135.49H179.775ZM162.51 56.7851C163.292 58.4916 163.568 60.3866 163.305 62.2451C163.183 62.7182 162.932 63.148 162.58 63.4869C162.228 63.8258 161.789 64.0603 161.312 64.1645C160.834 64.2687 160.338 64.2383 159.876 64.0769C159.415 63.9155 159.008 63.6293 158.7 63.2501C157.984 61.7424 157.446 60.1568 157.095 58.5251C157.5 58.0001 161.82 56.9501 162.51 56.7851ZM141.87 71.7851C141.322 71.5357 140.761 71.3153 140.19 71.1251C139.807 70.9675 139.464 70.7242 139.19 70.4139C138.915 70.1036 138.715 69.7344 138.605 69.3347C138.494 68.9351 138.477 68.5155 138.555 68.1082C138.632 67.701 138.801 67.3168 139.05 66.9851C139.995 66.1901 140.85 66.2351 141.63 67.4201C142.125 68.3351 142.11 68.4101 142.335 68.5001C142.4 68.5286 142.469 68.5429 142.54 68.5421C142.61 68.5414 142.68 68.5255 142.744 68.4957C142.808 68.4659 142.865 68.4228 142.911 68.3692C142.956 68.3156 142.99 68.2529 143.01 68.1851C143.232 67.2462 143.268 66.2728 143.115 65.3201C142.935 64.2851 142.905 59.6951 142.935 59.5451C143.373 59.7761 143.865 59.8849 144.36 59.8601C147.075 59.7551 147.615 58.3601 148.695 57.2201C149.94 57.3401 150.195 57.9401 151.605 57.2201C152.265 56.8446 152.871 56.3802 153.405 55.8401C153.836 56.0166 154.252 56.2273 154.65 56.4701C155.549 56.9024 156.563 57.0352 157.543 56.8489C158.523 56.6626 159.417 56.1671 160.095 55.4351C160.26 55.7501 160.41 56.0651 160.545 56.3951C159.167 56.8228 157.869 57.4768 156.705 58.3301C156.45 58.6451 156.825 60.3551 156.915 60.7601C155.658 60.9182 154.443 61.3099 153.33 61.9151C153.105 61.1351 152.61 59.6801 151.83 59.2751C151.595 59.2033 151.345 59.2033 151.11 59.2751C149.76 59.4851 144.915 60.9401 144.33 61.7351C143.82 62.2901 145.275 66.5801 145.725 67.2851C147.45 69.9551 152.505 69.1751 153.45 66.0551C153.684 65.008 153.684 63.9222 153.45 62.8751C153.885 62.8751 155.19 62.4101 155.34 62.3651C156.375 64.6901 156.675 64.8251 157.875 67.3301C157.71 67.4651 157.44 67.6901 157.215 67.8401C156.15 68.5451 155.925 68.4251 155.985 68.7251C156.002 68.7847 156.041 68.8358 156.094 68.8689C156.146 68.9021 156.209 68.9149 156.27 68.9051C156.9 68.8152 157.515 68.6437 158.1 68.3951C158.45 68.2645 158.739 68.0077 158.91 67.6751C159.33 66.7301 157.005 63.1751 156.09 62.1101C156.27 62.1101 156.69 61.8101 157.005 61.6451C157.425 63.3251 157.71 64.6451 159.33 65.3051C159.798 65.4819 160.297 65.5624 160.797 65.5417C161.297 65.5211 161.788 65.3998 162.24 65.1851C162.48 67.8251 162.435 72.1151 161.175 74.4551C160.53 75.6701 158.94 76.1351 157.92 77.1401C157.62 77.4251 157.815 77.8301 157.92 78.2651C159.585 82.9001 159.615 82.8851 159.525 83.4851C159.084 85.9754 158.467 88.4315 157.68 90.8351C157.305 90.6701 153.09 88.4351 144.84 85.2251C144.585 83.5301 143.22 74.4851 142.785 72.8201C142.815 72.2351 142.74 72.1001 141.87 71.7101V71.7851ZM152.37 65.6651C151.89 67.3001 149.625 68.0051 148.005 67.5551C146.385 67.1051 146.28 66.2801 145.515 64.3301C145.156 63.5852 144.909 62.7918 144.78 61.9751C145.275 61.4351 150.69 60.3251 151.365 60.2201C152.312 61.8397 152.667 63.7378 152.37 65.5901V65.6651ZM93.675 155.725C93.105 156.28 93.87 158.095 93.99 159.67C93.99 159.805 93.99 160.39 93.9 160.435C93.075 160.705 92.31 159.46 91.845 158.71C91.38 157.96 90.915 156.94 90.18 157.21C88.68 157.915 85.2 162.535 83.835 163.015C83.145 161.695 87.09 157.93 87.225 157.72C87.2829 157.624 87.3132 157.513 87.3127 157.401C87.3121 157.288 87.2808 157.178 87.222 157.082C87.1633 156.986 87.0793 156.908 86.9793 156.857C86.8794 156.805 86.7672 156.782 86.655 156.79C86.385 156.79 86.205 157.03 85.785 157.405C84.5075 158.652 83.0453 159.694 81.45 160.495C82.8964 158.836 84.4444 157.268 86.085 155.8C86.166 155.717 86.223 155.613 86.25 155.5C86.25 155.5 85.935 154.705 85.32 155.02C84.45 155.5 80.22 157.945 78.885 158.575C78.705 158.455 78.81 158.275 78.885 158.095C81 155.5 85.65 152.35 88.5 150.355C88.8345 150.011 89.1129 149.616 89.325 149.185C91.2988 151.022 93.4044 152.711 95.625 154.24C94.9409 154.689 94.2893 155.185 93.675 155.725ZM128.58 169.36C128.25 169.15 128.01 168.955 127.965 168.685C127.14 162.565 131.73 127.885 131.655 126.52C131.655 126.44 131.639 126.361 131.608 126.287C131.577 126.213 131.531 126.146 131.474 126.09C131.417 126.035 131.349 125.991 131.274 125.961C131.2 125.932 131.12 125.918 131.04 125.92C130.275 125.92 131.625 125.92 112.515 144.22C111.255 145.405 101.625 154.615 100.02 155.23C97.815 155.065 89.52 148.45 88.17 146.365C90.78 141.085 122.43 97.6451 133.38 91.0001C134.22 90.4901 135.66 89.6951 137.235 88.8551C137.78 89.3688 138.367 89.8354 138.99 90.2501C142.47 93.5501 147.315 97.6601 150.99 100.75L148.125 106.435C148.082 106.51 148.059 106.596 148.059 106.683C148.059 106.77 148.082 106.855 148.125 106.93C171.39 140.305 171.045 139.93 171.195 139.93C172.686 147.642 173.614 155.453 173.97 163.3C173.97 165.415 173.97 165.235 174.06 165.085C174.15 164.935 174.06 165.19 174.06 165.19C170.43 169.15 134.505 172.84 128.58 169.36ZM211.5 119.665C204.705 120.61 197.025 119.2 195.54 119.14C194.715 115.141 193.07 111.357 190.71 108.025C190.674 107.977 190.621 107.943 190.561 107.932C190.502 107.921 190.441 107.933 190.389 107.965C190.338 107.997 190.301 108.048 190.285 108.106C190.27 108.164 190.277 108.227 190.305 108.28C191.175 110.05 194.085 117.685 194.805 119.545C194.58 120.265 201.585 149.23 199.605 153.13C197.835 156.655 187.53 161.095 183.81 162.37C183.074 154.02 181.873 145.717 180.21 137.5C180.72 133.18 180.06 107.5 179.865 98.0051C179.859 97.8948 179.822 97.7884 179.759 97.6981C179.695 97.6078 179.607 97.5375 179.505 97.4951L172.77 94.6601C172.739 91.0955 172.514 87.5352 172.095 83.9951C188.91 86.9051 208.5 96.5201 210.135 96.5351C212.505 96.5351 230.115 83.0351 233.76 82.4951C235.38 82.2401 242.34 88.3151 243.15 89.9951C236.04 99.9251 223.545 112.975 217.755 117.49C215.89 118.737 213.736 119.486 211.5 119.665Z" fill="#008CDB"/>
<path d="M150.825 62.665C150.808 62.5653 150.77 62.4701 150.716 62.3849C150.661 62.2996 150.59 62.2261 150.507 62.1685C150.424 62.1109 150.33 62.0705 150.231 62.0496C150.132 62.0286 150.03 62.0275 149.93 62.0464C149.831 62.0653 149.736 62.1038 149.652 62.1596C149.567 62.2154 149.495 62.2875 149.439 62.3715C149.382 62.4556 149.343 62.5501 149.324 62.6494C149.304 62.7487 149.305 62.8509 149.325 62.95C149.625 64.45 149.685 64.795 150.345 64.795C150.47 64.7955 150.593 64.7648 150.703 64.7057C150.812 64.6467 150.906 64.5612 150.974 64.4569C151.043 64.3527 151.084 64.2329 151.095 64.1086C151.105 63.9843 151.085 63.8594 151.035 63.745C150.99 63.505 150.855 62.8 150.825 62.665ZM155.415 72.595C156.39 72.88 157.32 72.415 157.29 72.175C157.26 71.935 157.29 72.055 155.97 71.56C155.085 71.23 154.11 70.06 153.765 70.24C153.42 70.42 153.945 71.38 154.065 71.56C154.386 72.0469 154.861 72.4115 155.415 72.595ZM182.85 58.345C180.885 66.58 179.445 73.57 179.205 74.965C179.046 75.572 179.015 76.2055 179.115 76.825C179.91 78.52 190.185 81.865 191.49 81.205C192.795 80.545 196.185 72.91 200.13 65.035C202.547 65.1122 204.965 64.9363 207.345 64.51C209.851 64.0503 212.29 63.2793 214.605 62.215C219.675 59.875 225.225 49.855 225.975 44.815C226.537 39.3431 225.379 33.832 222.66 29.05C210.075 7.22502 173.16 18.97 176.16 43.21C177.017 48.7566 179.325 53.978 182.85 58.345ZM192 76.21C192 76.45 191.73 76.42 190.5 76.21C187.984 75.8939 185.548 75.1158 183.315 73.915C182.265 73.345 181.98 73.225 182.085 72.97C182.19 72.715 182.415 72.805 184.035 73.255C184.185 73.255 188.835 74.755 190.17 75.22C191.895 76 192 76 192 76.21ZM191.73 51.805C193.332 51.8881 194.928 51.5575 196.365 50.845C197.701 51.4921 199.145 51.8838 200.625 52C198.105 56.695 192.99 66.265 191.34 71.365L184.98 69.61C186.48 65.92 189.795 57.28 191.7 51.805H191.73ZM191.205 50.56C190.085 50.3909 189.052 49.8591 188.264 49.0462C187.475 48.2334 186.975 47.1844 186.84 46.06C186.42 43.06 188.34 39.7 191.235 40.495C193.05 40.99 193.275 42.43 192.96 44.245C192.69 45.565 191.715 48.88 191.175 50.5L191.205 50.56ZM195.285 46.96C195.445 45.9785 195.813 45.0426 196.365 44.215C196.627 43.7639 197.011 43.3954 197.472 43.1515C197.934 42.9076 198.454 42.7979 198.975 42.835C200.085 43.165 200.565 45.265 199.65 46.585C198.771 47.752 197.676 48.7398 196.425 49.495C195.995 49.2424 195.652 48.8641 195.443 48.4109C195.233 47.9578 195.168 47.4515 195.255 46.96H195.285ZM181.5 27.895C188.22 19.81 200.865 16.6 210 19.93C214.962 21.6335 219.137 25.0826 221.745 29.635C224.331 34.1854 225.437 39.4277 224.91 44.635C224.22 49.3 218.91 58.99 214.245 61.135C209.98 63.0806 205.326 64.0246 200.64 63.895C200.13 63.895 199.59 63.895 199.395 64.255C198.51 66.055 196.89 69.535 195.3 72.805C194.202 72.2749 193.063 71.8335 191.895 71.485C193.635 66.505 199.125 56.725 201.735 51.985C203.996 52.1788 206.27 51.7861 208.335 50.845C208.893 50.5513 209.356 50.1045 209.669 49.557C209.982 49.0096 210.132 48.3842 210.102 47.7543C210.072 47.1244 209.863 46.5161 209.5 46.0008C209.136 45.4855 208.633 45.0845 208.05 44.845C205.725 43.705 203.64 46.435 202.425 48.73C202.095 49.33 201.72 50.035 201.3 50.83C200.087 50.7503 198.89 50.5029 197.745 50.095C198.886 49.2933 199.897 48.3221 200.745 47.215C201.22 46.4978 201.461 45.6509 201.434 44.7912C201.407 43.9314 201.114 43.1012 200.595 42.415C200.188 41.9418 199.621 41.6334 199.003 41.5478C198.384 41.4622 197.756 41.6052 197.235 41.95C196.185 42.5955 195.343 43.5305 194.811 44.6427C194.278 45.7549 194.079 46.997 194.235 48.22C194.398 48.9104 194.77 49.5337 195.3 50.005C194.316 50.4125 193.26 50.6166 192.195 50.605C192.795 48.835 193.77 45.64 194.025 44.335C194.185 43.591 194.22 42.8256 194.13 42.07C194.014 41.4214 193.713 40.82 193.263 40.3384C192.813 39.8567 192.234 39.5152 191.595 39.355C187.95 38.32 185.265 42.355 185.79 46.12C185.938 47.4693 186.517 48.7348 187.441 49.7291C188.365 50.7234 189.585 51.3934 190.92 51.64C189 57.04 186 65.755 184.5 69.475L181.2 68.62C183.315 58 183.57 58.255 183.27 58.12C179.862 53.7746 177.681 48.5947 176.955 43.12C176.601 40.4054 176.823 37.6468 177.606 35.0236C178.39 32.4005 179.716 29.9716 181.5 27.895ZM202.32 50.92C203.37 49.015 205.47 44.845 207.51 45.865C207.918 46.0294 208.273 46.3021 208.538 46.6537C208.802 47.0053 208.965 47.4224 209.01 47.86C208.98 50.5 204.87 50.965 202.26 50.92H202.32ZM259.74 57.535C261.548 56.472 263.683 56.109 265.74 56.515C268 56.5555 270.159 57.4591 271.774 59.0405C273.389 60.622 274.337 62.7614 274.425 65.02C273.066 64.2315 271.477 63.9349 269.925 64.18C266.16 64.51 261.24 66.55 261.9 70.18C262.44 73.18 266.4 72.775 269.4 71.965C272.4 71.155 274.785 69.685 275.4 66.79C279.045 69.445 279.9 74.095 280.05 78.64C280.05 78.7037 280.075 78.7647 280.12 78.8097C280.165 78.8547 280.226 78.88 280.29 78.88C280.354 78.88 280.415 78.8547 280.46 78.8097C280.505 78.7647 280.53 78.7037 280.53 78.64C280.635 73.555 279.72 68.575 275.565 65.68C275.608 64.3777 275.386 63.0802 274.912 61.8662C274.439 60.6522 273.724 59.5468 272.811 58.617C271.899 57.6873 270.806 56.9525 269.601 56.4571C268.396 55.9617 267.103 55.7161 265.8 55.735C263.718 55.431 261.595 55.8662 259.8 56.965C259.245 57.235 259.5 57.64 259.74 57.535ZM273.42 68.29C271.725 70.51 266.925 71.665 264.705 71.29C263.88 71.155 263.205 70.81 263.025 69.955C262.485 66.955 267.66 65.32 270.75 65.215C272.008 65.1186 273.263 65.4402 274.32 66.13C274.206 66.9143 273.897 67.6572 273.42 68.29ZM252.87 40C254.475 38.02 253.395 34.57 248.91 34.555C247.17 34.555 246.33 36.325 246.45 38.02C246.72 42.055 251.265 41.935 252.87 40ZM247.5 37.945C247.5 36.955 247.965 35.665 249 35.68C251.415 35.68 252.525 36.805 252.525 38.05C252.465 40.885 247.305 42.355 247.5 37.945ZM246.885 208C233.7 202.735 227.58 228.22 216.81 250.12C216.742 251.041 216.772 251.966 216.9 252.88C216.9 255.175 217.155 270.37 218.49 272.095C218.85 272.785 220.365 272.095 221.07 271.66C227.058 267.953 232.7 263.716 237.93 259C237.975 258.949 238.008 258.889 238.029 258.825C238.05 258.76 238.057 258.692 238.05 258.625C240.84 254.65 251.295 233.95 253.83 223.57C255.6 216.22 253.845 210.745 246.885 208ZM251.595 227.05C244.536 226.146 237.712 223.917 231.48 220.48C234.99 213.835 239.325 206.26 246.48 209.11C254.445 212.275 254.28 218.83 251.595 227.005V227.05ZM226.635 266.05C226.174 265.664 225.671 265.332 225.135 265.06C223.108 264.029 220.766 263.804 218.58 264.43C218.43 262.645 217.575 251.035 217.575 250.93C228.81 255.04 225.345 253.255 236.475 258.79C235.305 259.9 230.91 262.975 226.635 266.02V266.05ZM234.375 222.64C235.838 223.439 237.34 224.165 238.875 224.815C235.437 230.216 232.399 235.861 229.785 241.705C227.265 246.97 227.355 246.94 224.79 252.685C223.29 252.205 221.79 251.755 220.29 251.305C221.91 248.08 233.43 224.5 234.375 222.61V222.64ZM225.375 252.835C230.25 244.09 235.215 233.215 239.475 225.01C240.975 225.64 242.475 226.15 243.975 226.6C243.18 228.1 240.855 232.09 240.24 233.245C239.625 234.4 233.46 246.55 233.025 247.48C232.335 248.98 230.445 253.165 229.86 254.5C228.33 253.825 226.86 253.315 225.315 252.805L225.375 252.835ZM230.4 254.695C231.315 253.03 235.08 246.04 235.545 245.14C236.25 243.745 244.11 227.68 244.545 226.75C245.925 227.14 247.38 227.47 248.31 227.65C245.565 235.15 237.66 249.595 234.81 256.72C232.215 255.505 231.63 255.205 230.34 254.665L230.4 254.695ZM231.315 220.915L234 222.415C228.589 231.63 223.876 241.236 219.9 251.155L217.65 250.465C226.365 231.895 226.77 229.465 231.255 220.885L231.315 220.915ZM237.495 258.025L235.23 256.945C237.675 252.145 245.325 239.83 248.82 227.755C249.66 227.905 250.485 228.04 251.28 228.145C247.425 238.43 242.797 248.409 237.435 257.995L237.495 258.025ZM190.5 267.76C191.098 267.265 191.525 266.595 191.722 265.844C191.918 265.093 191.874 264.299 191.595 263.575C191.468 262.53 190.988 261.559 190.236 260.823C189.484 260.086 188.503 259.628 187.455 259.523C186.408 259.418 185.355 259.674 184.472 260.246C183.589 260.819 182.927 261.676 182.595 262.675C180.675 261.43 178.59 260.11 176.595 258.85C178.095 256.855 182.505 257.74 182.955 259.375C182.966 259.437 183.002 259.493 183.053 259.529C183.105 259.566 183.169 259.581 183.231 259.571C183.294 259.561 183.35 259.528 183.388 259.477C183.426 259.426 183.443 259.363 183.435 259.3C183.21 256.69 177.78 255.16 175.59 258.235C173.655 257.05 171.255 255.61 169.245 254.515C170.97 253.015 174.825 253.855 175.245 255.415C175.265 255.468 175.303 255.513 175.352 255.541C175.402 255.569 175.46 255.578 175.516 255.567C175.572 255.557 175.622 255.526 175.657 255.482C175.693 255.437 175.712 255.382 175.71 255.325C175.515 252.895 170.49 251.26 168.21 253.93C167.255 253.395 166.25 252.953 165.21 252.61C165.02 252.531 164.811 252.509 164.609 252.546C164.407 252.584 164.219 252.679 164.07 252.82C160.275 257.545 147.48 269.815 141.57 271.24C141.421 271.262 141.281 271.324 141.164 271.417C141.047 271.511 140.956 271.634 140.901 271.774C140.846 271.914 140.829 272.066 140.852 272.214C140.875 272.363 140.936 272.503 141.03 272.62C142.328 273.937 143.814 275.054 145.44 275.935C143.94 277.435 142.77 278.785 141.9 279.76C141.45 280.24 141.21 289.42 141.6 291.445C141.658 291.643 141.786 291.814 141.96 291.925C143.85 293.215 168.195 303.745 170.685 302.335C172.35 301.39 192.225 280.705 192.54 280.075C193.02 279.085 192.855 272.485 192.825 269.845C192.705 269.05 191.22 268.195 190.5 267.76ZM142.5 287.575V284.23C148.725 287.23 162.975 293.35 168.375 295.06C169.755 295.51 169.875 295.45 170.595 295.06C174.72 292.42 189.285 276.01 191.955 273.505V276.67C183.855 284.785 170.1 299.005 169.845 298.195C168.36 298.105 143.79 288.175 142.5 287.575ZM190.125 262.705C190.664 263.614 190.954 264.648 190.965 265.705C190.96 266.041 190.877 266.372 190.724 266.671C190.57 266.97 190.35 267.23 190.08 267.43C188.82 266.59 186.435 265.03 183.615 263.2C185.16 260.155 188.595 260.11 190.065 262.705H190.125ZM142.125 272.305C148.515 270.415 160.65 258.715 164.73 253.645C165.712 253.918 166.658 254.306 167.55 254.8C166.05 257.59 167.655 260.65 168.225 260.215C168.54 259.975 167.97 259.885 167.88 258.415C167.842 257.341 168.085 256.276 168.585 255.325C170.655 256.405 173.085 257.815 175.14 259C173.88 261.805 175.395 264.58 175.92 264.175C176.445 263.77 175.68 263.86 175.59 262.39C175.553 261.426 175.738 260.466 176.13 259.585C178.245 260.83 180.405 262.12 182.385 263.335C182.08 264.082 181.959 264.892 182.032 265.696C182.105 266.5 182.37 267.275 182.805 267.955C182.825 267.981 182.849 268.002 182.877 268.018C182.905 268.034 182.936 268.045 182.968 268.049C183 268.053 183.033 268.051 183.064 268.043C183.095 268.034 183.124 268.02 183.15 268C183.176 267.98 183.197 267.956 183.213 267.928C183.229 267.9 183.24 267.869 183.244 267.837C183.248 267.805 183.246 267.772 183.238 267.741C183.229 267.71 183.215 267.681 183.195 267.655C182.925 267.059 182.792 266.41 182.805 265.757C182.818 265.103 182.977 264.46 183.27 263.875C186.765 266.005 189.585 267.79 190.455 268.375C190.29 268.525 174.645 282.445 169.32 286.585C165.825 285.67 147.48 276.565 142.125 272.305ZM142.695 280.66C149.49 283.66 164.925 290.62 168.48 291.295C169.095 291.415 169.335 291.46 170.505 290.53C175.5 286.525 191.745 269.53 191.895 269.71C191.902 269.755 191.902 269.8 191.895 269.845V272.845C188.55 275.53 169.95 295.06 169.65 294.13C168.15 294.13 143.775 284.185 142.53 283.63C142.5 283 142.635 281.32 142.695 280.66ZM170.01 301.33C168.51 302.185 145.665 292.9 142.605 291.01C142.49 290.054 142.435 289.093 142.44 288.13C149.01 291.37 168.12 299.44 169.875 299.365C172.44 299.23 190.575 278.815 191.865 277.39C191.88 278.156 191.804 278.921 191.64 279.67C191.385 280.165 171 300.775 170.01 301.33ZM45.735 216.775C45.84 218.38 45.915 219.775 45.915 221.08C45.915 221.279 45.994 221.47 46.1347 221.61C46.2753 221.751 46.4661 221.83 46.665 221.83C46.8639 221.83 47.0547 221.751 47.1953 221.61C47.336 221.47 47.415 221.279 47.415 221.08C47.415 219.685 47.34 218.305 47.235 216.67C47.2211 216.471 47.1287 216.286 46.9782 216.155C46.8277 216.024 46.6314 215.959 46.4325 215.973C46.2336 215.986 46.0484 216.079 45.9175 216.229C45.7867 216.38 45.7211 216.576 45.735 216.775ZM274.29 186.7C274.192 186.706 274.096 186.731 274.008 186.774C273.92 186.817 273.842 186.878 273.777 186.952C273.713 187.026 273.664 187.112 273.634 187.206C273.603 187.299 273.592 187.397 273.6 187.495C273.69 188.875 273.78 190.36 273.78 191.8C273.78 191.999 273.859 192.19 274 192.33C274.14 192.471 274.331 192.55 274.53 192.55C274.729 192.55 274.92 192.471 275.06 192.33C275.201 192.19 275.28 191.999 275.28 191.8C275.28 190.3 275.19 188.8 275.085 187.39C275.079 187.292 275.054 187.196 275.011 187.108C274.968 187.02 274.907 186.942 274.833 186.877C274.759 186.813 274.673 186.764 274.579 186.734C274.486 186.703 274.388 186.692 274.29 186.7ZM41.85 213.04C42.0489 213.04 42.2397 212.961 42.3803 212.82C42.521 212.68 42.6 212.489 42.6 212.29C42.6 212.091 42.521 211.9 42.3803 211.76C42.2397 211.619 42.0489 211.54 41.85 211.54C40.035 211.54 38.52 211.675 37.02 211.645C36.8197 211.645 36.6273 211.724 36.4843 211.864C36.3413 212.004 36.2589 212.195 36.255 212.395C36.255 212.594 36.334 212.785 36.4747 212.925C36.6153 213.066 36.8061 213.145 37.005 213.145C38.55 213.175 40.245 213.115 41.85 213.04ZM269.64 182.26C267.84 182.26 266.325 182.365 264.81 182.38C264.611 182.38 264.42 182.459 264.28 182.6C264.139 182.74 264.06 182.931 264.06 183.13C264.06 183.329 264.139 183.52 264.28 183.66C264.42 183.801 264.611 183.88 264.81 183.88C266.43 183.88 268.11 183.88 269.73 183.76C269.926 183.744 270.108 183.652 270.237 183.504C270.366 183.355 270.432 183.162 270.42 182.966C270.408 182.77 270.32 182.586 270.174 182.454C270.028 182.322 269.837 182.252 269.64 182.26ZM45.33 203.77C45.42 205.15 45.51 206.635 45.51 208.075C45.5138 208.273 45.5941 208.461 45.7339 208.601C45.8737 208.741 46.0623 208.821 46.26 208.825C46.4589 208.825 46.6497 208.746 46.7903 208.605C46.931 208.465 47.01 208.274 47.01 208.075C47.01 206.575 46.92 205.075 46.83 203.665C46.8161 203.466 46.7237 203.281 46.5732 203.15C46.4227 203.019 46.2264 202.954 46.0275 202.968C45.8286 202.981 45.6434 203.074 45.5125 203.224C45.3817 203.375 45.3161 203.571 45.33 203.77ZM274.875 178.795C274.875 177.295 274.785 175.795 274.68 174.385C274.666 174.186 274.574 174.001 274.423 173.87C274.273 173.739 274.076 173.674 273.877 173.688C273.679 173.701 273.493 173.794 273.363 173.944C273.232 174.095 273.166 174.291 273.18 174.49C273.27 175.87 273.36 177.355 273.36 178.795C273.36 178.994 273.439 179.185 273.58 179.325C273.72 179.466 273.911 179.545 274.11 179.545C274.31 179.545 274.503 179.467 274.646 179.326C274.789 179.186 274.871 178.995 274.875 178.795ZM56.4 212.845C56.4985 212.841 56.5953 212.818 56.6848 212.777C56.7744 212.735 56.8549 212.677 56.9217 212.604C56.9886 212.532 57.0405 212.447 57.0746 212.354C57.1086 212.262 57.124 212.164 57.12 212.065C57.1049 211.869 57.016 211.685 56.8714 211.552C56.7267 211.418 56.5369 211.344 56.34 211.345C54.525 211.42 53.01 211.48 51.495 211.45C51.2961 211.45 51.1053 211.529 50.9647 211.67C50.824 211.81 50.745 212.001 50.745 212.2C50.745 212.399 50.824 212.59 50.9647 212.73C51.1053 212.871 51.2961 212.95 51.495 212.95C53.1 212.98 54.78 212.92 56.4 212.845ZM284.19 182.065C282.69 182.14 281.025 182.185 279.36 182.185C279.261 182.181 279.162 182.197 279.069 182.232C278.977 182.267 278.892 182.321 278.821 182.389C278.749 182.458 278.692 182.54 278.654 182.632C278.615 182.723 278.595 182.821 278.595 182.92C278.595 183.12 278.673 183.313 278.814 183.456C278.954 183.599 279.145 183.681 279.345 183.685C281.055 183.685 282.435 183.685 284.25 183.565C284.348 183.561 284.445 183.538 284.535 183.497C284.624 183.455 284.705 183.397 284.772 183.324C284.839 183.252 284.891 183.167 284.925 183.074C284.959 182.982 284.974 182.884 284.97 182.785C284.952 182.59 284.862 182.409 284.718 182.276C284.574 182.143 284.386 182.068 284.19 182.065ZM21.93 168.4C22.125 168.55 64.425 162.28 66.24 161.17C66.3405 161.097 66.4208 160.999 66.4732 160.886C66.5257 160.773 66.5487 160.649 66.54 160.525C66.54 158.59 64.005 140.425 62.79 135.895C62.64 135.34 62.49 134.785 62.145 134.59C59.85 133.21 19.41 140.83 16.995 142.39C16.9296 142.429 16.873 142.481 16.8291 142.543C16.7851 142.605 16.7548 142.675 16.74 142.75C16.23 144.565 20.625 167.5 21.93 168.4ZM17.655 143.11C20.535 141.805 57.24 135.085 61.44 135.61C62.46 138.235 65.19 157.465 65.37 160.285C63.285 160.9 22.5 167.905 22.35 167.935C22.2 167.965 22.185 168.145 21.87 167.2C20.55 163.24 17.58 146.5 17.655 143.11Z" fill="#008CDB"/>
<path d="M69.54 162.505C69.6216 162.354 69.6581 162.182 69.645 162.01C69.645 159.625 66.225 133.15 65.01 131.035C64.9148 130.879 64.7799 130.751 64.6192 130.664C64.4585 130.577 64.2776 130.535 64.095 130.54C59.07 129.925 16.68 138.205 13.89 140.14C13.5 140.41 13.56 141.085 13.605 141.805C13.845 145.75 18.105 171.7 19.605 171.55C19.77 171.55 19.71 171.43 19.32 172.225C16.98 177.04 12.54 192.46 12.63 195.565C12.63 196.87 12.93 198.565 14.22 198.475C23.475 197.335 68.85 190.135 81.9 187.45C82.41 187.345 82.74 186.88 82.725 186.115C82.571 184.841 82.1846 183.605 81.585 182.47C79.755 179.035 72.165 165.43 69.54 162.505ZM19.695 171.085C18.525 169.585 14.22 143.74 14.55 140.875C17.85 139.165 59.67 131.08 64.05 131.74C65.25 135.04 68.355 158.875 68.55 161.74C63.24 163.57 26.475 169.51 19.695 171.085ZM20.355 171.535C21.615 171.22 64.53 164.035 68.46 163C70.605 164.995 80.295 182.23 80.925 183.7C72.315 185.2 21.24 193.735 13.725 194.875C13.83 190.33 18.495 174.445 20.355 171.535Z" fill="#008CDB"/>
<path d="M25.995 187.09C27.3 186.895 54.99 183.565 64.995 180.85C65.0567 180.834 65.1095 180.794 65.1418 180.74C65.1742 180.685 65.1834 180.619 65.1675 180.558C65.1516 180.496 65.1118 180.443 65.057 180.411C65.0021 180.378 64.9367 180.369 64.875 180.385C62.91 180.79 38.94 183.985 25.965 186.625C25.9292 186.619 25.8923 186.62 25.8573 186.63C25.8222 186.64 25.7899 186.658 25.7627 186.682C25.7355 186.706 25.7142 186.737 25.7004 186.77C25.6866 186.804 25.6807 186.84 25.683 186.877C25.6854 186.913 25.6959 186.948 25.714 186.98C25.732 187.012 25.757 187.039 25.787 187.059C25.8171 187.08 25.8515 187.093 25.8875 187.099C25.9235 187.104 25.9603 187.101 25.995 187.09ZM46.23 82.72C45.6697 83.9856 45.1985 85.2888 44.82 86.62C44.7977 86.8337 44.8566 87.0479 44.985 87.22C46.5 89.5 62.025 107.005 66.075 109.465C66.63 109.81 67.29 110.05 67.695 109.555C70.6371 105.894 74.4766 103.057 78.84 101.32C82.3914 100.064 86.1149 99.3603 89.88 99.235C92.88 98.965 93.405 98.665 94.56 96.7C95.9225 94.114 97.7301 91.7884 99.9 89.83C102.667 87.4109 105.738 85.3635 109.035 83.74C109.183 83.6559 109.299 83.5246 109.365 83.367C109.43 83.2093 109.441 83.0344 109.395 82.87C108.888 81.5797 108.217 80.3598 107.4 79.24C107.94 79.06 108.54 78.895 108.54 78.355C108.54 76.855 95.46 57.925 91.83 54.355C91.455 53.98 90.915 53.485 90.42 53.515C82.92 53.935 75.615 61.015 71.385 67.195C66.54 67.015 63.405 66.58 57.885 68.905C53.9881 70.5592 50.4748 73.0001 47.565 76.075C47.115 76.54 44.055 79.78 44.01 80.035C43.965 80.29 44.055 80.29 46.23 82.72ZM106.23 82.3C99.975 83.365 95.985 88.57 93.045 94.225C91.74 96.745 91.86 96.865 90.48 96.835C88.0669 96.6984 85.6462 96.7888 83.25 97.105C81.4924 97.3677 79.7644 97.7997 78.09 98.395C74.28 99.745 69.915 104.065 67.59 107.275C67.5406 107.341 67.4778 107.396 67.4058 107.436C67.3337 107.476 67.254 107.5 67.1718 107.507C67.0897 107.515 67.0069 107.504 66.9291 107.477C66.8512 107.45 66.78 107.407 66.72 107.35C61.845 102.325 53.22 93.505 48.885 88.435C48.675 88.21 49.035 87.88 49.245 88.12C52.05 91.12 59.295 98.305 67.065 106.12C69.69 102.775 73.74 98.725 77.745 97.315C79.929 96.536 82.2015 96.0321 84.51 95.815C86.6719 95.6508 88.8431 95.6508 91.005 95.815C91.89 94.795 96.27 83.215 106.2 81.925C106.229 81.9464 106.253 81.974 106.27 82.0058C106.287 82.0376 106.296 82.0729 106.298 82.1089C106.299 82.145 106.293 82.1808 106.278 82.2139C106.264 82.247 106.242 82.2764 106.215 82.3H106.23ZM90.405 54.73C93.405 56.83 105.615 74.905 107.205 78.07C104.446 78.9442 101.782 80.0951 99.255 81.505C96.8615 82.7049 94.7659 84.4235 93.1207 86.5358C91.4756 88.648 90.3223 91.1007 89.745 93.715C84.36 84.955 76.845 75.31 71.85 68.215C72.15 68.02 80.58 55.315 90.405 54.73ZM58.215 69.73C63.69 67.525 66.72 68.035 71.25 68.23C75.75 75.91 83.835 86.74 89.16 93.835C84.2452 92.672 79.0733 93.3834 74.655 95.83C72 97.33 68.76 100.93 66.765 103.165C63.885 100.855 47.265 83.155 44.595 80.155C48.705 75.505 52.5 72.01 58.215 69.67V69.73ZM30.765 107.875C30.3943 107.615 29.956 107.468 29.5033 107.452C29.0507 107.436 28.6032 107.552 28.215 107.785C27.9323 107.911 27.6773 108.092 27.4644 108.316C27.2514 108.541 27.0849 108.805 26.9741 109.094C26.8634 109.383 26.8107 109.691 26.819 110.001C26.8273 110.31 26.8964 110.615 27.0225 110.898C27.1486 111.18 27.3291 111.435 27.5537 111.648C27.7784 111.861 28.0428 112.028 28.3318 112.138C28.6208 112.249 28.9288 112.302 29.2382 112.294C29.5476 112.285 29.8523 112.216 30.135 112.09C30.5866 111.991 30.9975 111.758 31.3132 111.42C31.6289 111.082 31.8346 110.657 31.9029 110.2C31.9713 109.743 31.899 109.275 31.6958 108.86C31.4926 108.445 31.168 108.101 30.765 107.875ZM29.775 110.875C28.725 111.205 28.095 110.875 27.84 110.365C27.36 109.3 27.96 107.665 29.52 108.145C30.615 108.55 31.5 110.395 29.775 110.95V110.875ZM107.04 39.235C107.475 40.12 109.5 39.79 110.385 39.505C110.85 39.355 111.15 39.19 111.195 38.74C111.33 37.615 111.48 27.865 110.97 26.92C110.917 26.8209 110.837 26.7396 110.738 26.6862C110.639 26.6329 110.527 26.6098 110.415 26.62C108.815 26.6156 107.222 26.8481 105.69 27.31C105.075 27.685 106.5 38.245 107.04 39.235ZM106.005 27.67C107.391 27.4718 108.792 27.4065 110.19 27.475C110.28 28.585 110.04 38.2 110.025 38.35C109.391 38.5771 108.715 38.6591 108.045 38.59C107.94 38.245 107.76 37.315 107.535 36.145C106.874 33.3494 106.363 30.5203 106.005 27.67ZM29.31 95.215C29.4539 95.2887 29.6133 95.3272 29.775 95.3272C29.9367 95.3272 30.0961 95.2887 30.24 95.215C30.8195 94.8576 31.2791 94.3353 31.56 93.715C31.5982 93.6158 31.6099 93.5083 31.5941 93.4032C31.5784 93.298 31.5356 93.1987 31.47 93.115C30.75 92.26 22.89 83.155 21.93 83.725C20.7513 84.4881 19.633 85.3406 18.585 86.275C18.5428 86.3128 18.5089 86.359 18.4857 86.4107C18.4624 86.4624 18.4503 86.5184 18.45 86.575C18.42 87.355 27.15 94.345 29.31 95.215ZM22.11 84.115C23.205 84.91 26.895 89.47 30.315 93.505C30.1679 93.7367 29.9857 93.9442 29.775 94.12C26.1793 91.8187 22.7462 89.2727 19.5 86.5C20.3138 85.6456 21.1859 84.8487 22.11 84.115ZM45.675 51.025C46.005 45.205 49.395 42.505 52.935 41.815C51.93 45.505 52.095 50.305 55.74 50.92C57.48 51.205 58.335 50.305 59.595 49.255C64.98 44.755 60.63 40.255 54.555 40.57C56.82 34.36 62.055 29.305 69 29.14C69.0636 29.14 69.1247 29.1147 69.1697 29.0697C69.2147 29.0247 69.24 28.9637 69.24 28.9C69.24 28.8364 69.2147 28.7753 69.1697 28.7303C69.1247 28.6853 69.0636 28.66 69 28.66C61.5 28.51 55.605 33.91 53.28 40.66C49.275 41.35 45.3 44.35 45.195 50.935C45.1872 50.9673 45.1861 51.0007 45.1917 51.0334C45.1973 51.0661 45.2094 51.0973 45.2275 51.1252C45.2455 51.153 45.269 51.1769 45.2965 51.1953C45.3241 51.2138 45.3551 51.2265 45.3876 51.2326C45.4202 51.2387 45.4537 51.2381 45.4861 51.2309C45.5184 51.2236 45.549 51.2099 45.5759 51.1905C45.6027 51.1711 45.6254 51.1464 45.6424 51.1179C45.6595 51.0895 45.6706 51.0579 45.675 51.025ZM54.21 41.635C56.445 41.485 59.775 42.175 60.69 44.2C61.215 45.355 60.69 46.78 58.83 48.34C58.325 48.8459 57.749 49.2754 57.12 49.615C54.87 50.575 52.38 47.8 54.21 41.635ZM58.5 253.78C57.0508 253.392 55.5386 253.297 54.0524 253.502C52.5661 253.707 51.1359 254.208 49.8459 254.973C48.5558 255.739 47.432 256.756 46.5405 257.962C45.6491 259.169 45.008 260.542 44.655 262C43.9886 265.029 44.553 268.2 46.224 270.813C47.8949 273.426 50.5356 275.269 53.565 275.935C56.5944 276.601 59.7645 276.037 62.3778 274.366C64.9911 272.695 66.8336 270.054 67.5 267.025C67.7846 265.564 67.7773 264.061 67.4783 262.603C67.1793 261.144 66.5947 259.76 65.758 258.528C64.9214 257.297 63.8493 256.244 62.6036 255.429C61.3579 254.614 59.9633 254.053 58.5 253.78ZM63.135 266.005C62.5331 268.405 61.0923 270.511 59.073 271.942C57.0537 273.372 54.5892 274.033 52.125 273.805C49.863 272.921 47.9851 271.268 46.8218 269.136C45.6585 267.004 45.2843 264.531 45.765 262.15C46.3263 259.691 47.7537 257.517 49.7864 256.024C51.819 254.531 54.321 253.82 56.835 254.02C59.1193 254.964 60.9975 256.683 62.139 258.875C63.2804 261.068 63.6118 263.592 63.075 266.005H63.135Z" fill="#008CDB"/>
<path d="M78.48 258.055C77.1742 257.604 75.7747 257.496 74.415 257.74C73.8515 256.448 73.1579 255.217 72.345 254.065C73.32 253.18 75.99 250.72 75.345 249.565C73.0495 246.819 70.3242 244.464 67.275 242.59C66.0018 241.877 64.5997 241.423 63.15 241.255C62.19 241.39 59.91 245.125 59.4 245.965C59.07 245.965 57.9 245.59 57.81 245.545C57.81 244.465 57.495 240.565 56.52 240.115C55.4297 239.714 54.2975 239.437 53.145 239.29C52.08 239.125 42.495 240.88 41.79 242.17C41.325 243.04 42.405 246.325 42.72 247.24C41.911 247.685 41.1341 248.186 40.395 248.74C38.895 249.805 39.3 249.76 39.03 249.64C38.7037 249.484 38.3541 249.383 37.995 249.34C36.7968 248.637 35.3919 248.372 34.02 248.59C32.64 249.04 29.385 256.45 28.86 258.355C28.6882 258.835 28.6417 259.352 28.725 259.855C29.085 260.845 31.485 261.64 32.49 261.955C32.2125 263.885 32.2125 265.845 32.49 267.775C31.17 268.135 28.425 268.945 28.575 270.295C28.725 271.645 32.235 280.555 33.69 281.26C34.4871 281.706 35.3685 281.98 36.2777 282.065C37.187 282.151 38.104 282.045 38.97 281.755C39.4577 281.512 39.9288 281.236 40.38 280.93C40.98 281.38 41.61 281.785 42.255 282.175C41.79 283.33 40.755 285.91 41.085 287.08C41.25 287.695 41.745 287.89 42.435 288.145C44.34 288.835 54.6 291.295 56.16 291.025C56.745 290.935 57.06 290.32 57.24 289.735C57.5733 288.404 57.7693 287.041 57.825 285.67C58.5954 285.594 59.3613 285.479 60.12 285.325C60.5833 286.14 61.176 286.875 61.875 287.5C62.64 288.04 63.285 287.77 64.155 287.215C64.575 287.755 65.205 288.505 65.88 288.58C67.575 288.775 74.58 282.175 75.3 280.825C75.9 279.7 73.71 277.69 72.735 276.805C73.7897 275.218 74.6177 273.491 75.195 271.675C76.2769 271.838 77.3718 271.898 78.465 271.855C78.96 271.855 79.53 271.675 79.74 271.21C80.655 269.125 80.385 261.22 79.74 259.21C79.65 258.625 78.975 258.235 78.48 258.055ZM78.84 259.435C79.35 261.385 79.515 268.75 78.765 270.655C77.4681 270.783 76.1595 270.722 74.88 270.475C74.7434 270.452 74.603 270.48 74.4864 270.555C74.3698 270.63 74.2855 270.746 74.25 270.88C73.6526 272.908 72.7252 274.824 71.505 276.55C71.4181 276.664 71.3789 276.808 71.3957 276.951C71.4125 277.093 71.4839 277.224 71.595 277.315C72.6474 278.149 73.5416 279.165 74.235 280.315C73.485 281.545 67.62 286.915 66 287.365C65.76 287.365 65.1 286.465 64.935 286.225C64.3809 285.392 63.8799 284.526 63.435 283.63C63.3701 283.499 63.2587 283.398 63.1227 283.345C62.9867 283.292 62.836 283.292 62.7 283.345C58.35 284.98 56.7 284.02 56.7 285.1C56.7019 286.717 56.4384 288.323 55.92 289.855C52.3949 289.472 48.9235 288.697 45.57 287.545C45.732 285.944 46.179 284.384 46.89 282.94C47.34 281.935 45.54 282.22 42.18 278.8C42.0719 278.7 41.9299 278.644 41.7825 278.644C41.6351 278.644 41.4931 278.7 41.385 278.8C39.885 280.03 37.935 281.23 37.545 281.035C36.78 280.66 33.255 272.665 33.045 271.045C34.1119 270.302 35.323 269.791 36.6 269.545C36.7362 269.507 36.8538 269.42 36.931 269.301C37.0082 269.183 37.0399 269.04 37.02 268.9C36.6524 266.776 36.6524 264.604 37.02 262.48C37.0429 262.349 37.0154 262.215 36.9431 262.103C36.8707 261.992 36.7588 261.912 36.63 261.88C35.4992 261.584 34.4105 261.145 33.39 260.575C33.06 260.335 33.09 260.35 33.12 260.095C34.0909 256.593 35.6479 253.282 37.725 250.3C38.535 250.075 40.725 251.68 41.475 252.25C41.5534 252.326 41.6583 252.369 41.7675 252.369C41.8767 252.369 41.9816 252.326 42.06 252.25C42.7492 251.535 43.4913 250.873 44.28 250.27C46.56 248.545 47.175 248.77 46.98 248.17C46.2904 246.665 45.9031 245.039 45.84 243.385C46.0725 243.192 46.3363 243.039 46.62 242.935C48.0204 242.381 49.4592 241.93 50.925 241.585C52.7018 241.09 54.5279 240.793 56.37 240.7C56.685 240.835 56.97 242.2 57.045 242.62C57.6 245.62 57.225 246.235 57.66 246.28C61.935 246.7 62.805 247.885 63.105 247.36C63.9368 245.906 64.9062 244.534 66 243.265C66.315 242.95 66.3 242.8 67.245 243.34C70.0682 245.185 72.5966 247.445 74.745 250.045C74.97 250.435 73.02 252.505 71.595 253.72C71.1 254.155 71.805 254.35 73.095 256.81C74.385 259.27 74.085 259.96 74.775 259.81C76.1051 259.492 77.474 259.365 78.84 259.435ZM287.025 134.095C283.881 132.811 280.583 131.938 277.215 131.5C274.755 131.11 271.86 130.72 269.415 130.405C271.77 127.075 278.745 118.645 279.915 116.59C280.245 116.035 279.615 115.255 279.15 114.79C276.54 112 271.5 110.95 267.63 110.35C265.41 109.99 256.14 108.85 254.565 109.6C252.675 110.5 238.695 131.5 238.275 134.695C238.275 135.235 238.455 135.445 238.98 135.64C241.185 136.45 251.13 137.71 253.35 138.235C250.35 143.485 237.015 161.23 235.71 163.735C235.395 164.365 235.59 164.74 235.965 164.86C237.315 165.396 238.704 165.827 240.12 166.15C240.66 166.315 241.845 165.58 243.57 164.53C251.31 159.88 284.52 137.95 287.07 135.115C287.14 135.048 287.196 134.968 287.232 134.878C287.268 134.788 287.285 134.691 287.281 134.595C287.276 134.498 287.251 134.403 287.207 134.317C287.163 134.231 287.101 134.155 287.025 134.095ZM254.79 152.095C242.04 160.51 237.735 162.97 237.585 163.075C239.64 159.94 252.405 142.45 254.595 138.265C254.633 138.184 254.653 138.096 254.652 138.006C254.652 137.917 254.632 137.829 254.593 137.748C254.554 137.668 254.498 137.597 254.428 137.541C254.358 137.485 254.277 137.446 254.19 137.425C252.69 136.885 241.77 135.715 239.19 134.8C239.52 132.01 253.14 110.92 254.79 110.08C256.44 109.24 272.445 111.145 275.445 113.29C273.87 116.365 265.17 127.135 263.76 129.64C263.475 130.15 263.385 130.645 263.94 130.78C264.495 130.915 278.595 132.565 281.67 133.57C277.92 136.705 258.99 149.275 254.79 152.035V152.095ZM158.565 60.385C158.565 60.52 158.655 60.685 158.88 61.555C158.939 61.7437 159.069 61.9023 159.242 61.9974C159.416 62.0924 159.619 62.1167 159.81 62.065C160.001 62.0093 160.162 61.88 160.258 61.7056C160.353 61.5312 160.376 61.326 160.32 61.135C160.17 60.55 160.035 60.055 159.945 59.815C159.858 59.6503 159.712 59.524 159.537 59.4609C159.361 59.3977 159.168 59.4021 158.996 59.4733C158.824 59.5445 158.684 59.6773 158.604 59.8459C158.525 60.0144 158.511 60.2066 158.565 60.385Z" fill="#008CDB"/>
</g>
<defs>
<clipPath id="clip0_115_764">
<rect width="300" height="300" fill="white"/>
</clipPath>
</defs>
</svg>
